<mxfile host="Electron" agent="Mozilla/5.0 (Windows NT 10.0; Win64; x64) AppleWebKit/537.36 (KHTML, like Gecko) draw.io/28.0.6 Chrome/138.0.7204.100 Electron/37.2.3 Safari/537.36" version="28.0.6">
  <diagram name="Página-1" id="I-7i-WtJHylYiYFPQm8o">
    <mxGraphModel dx="1304" dy="670" grid="0" gridSize="10" guides="1" tooltips="1" connect="1" arrows="1" fold="1" page="1" pageScale="1" pageWidth="4681" pageHeight="3300" math="0" shadow="0">
      <root>
        <mxCell id="0" />
        <mxCell id="1" parent="0" />
        <mxCell id="8UmoSVPX2Ag410WzAP6h-1" value="filme" style="whiteSpace=wrap;html=1;align=center;" parent="1" vertex="1">
          <mxGeometry x="764" y="633.5" width="100" height="40" as="geometry" />
        </mxCell>
        <mxCell id="8UmoSVPX2Ag410WzAP6h-3" value="genero" style="whiteSpace=wrap;html=1;align=center;" parent="1" vertex="1">
          <mxGeometry x="998" y="487" width="100" height="40" as="geometry" />
        </mxCell>
        <mxCell id="8UmoSVPX2Ag410WzAP6h-4" value="id" style="ellipse;whiteSpace=wrap;html=1;align=center;fontStyle=4;" parent="1" vertex="1">
          <mxGeometry x="671" y="593.5" width="100" height="40" as="geometry" />
        </mxCell>
        <mxCell id="8UmoSVPX2Ag410WzAP6h-6" value="id" style="ellipse;whiteSpace=wrap;html=1;align=center;fontStyle=4;" parent="1" vertex="1">
          <mxGeometry x="994" y="406" width="100" height="40" as="geometry" />
        </mxCell>
        <mxCell id="8UmoSVPX2Ag410WzAP6h-7" value="nome" style="ellipse;whiteSpace=wrap;html=1;align=center;" parent="1" vertex="1">
          <mxGeometry x="498" y="534" width="100" height="40" as="geometry" />
        </mxCell>
        <mxCell id="8UmoSVPX2Ag410WzAP6h-8" value="" style="endArrow=none;html=1;rounded=0;" parent="1" source="8UmoSVPX2Ag410WzAP6h-6" target="8UmoSVPX2Ag410WzAP6h-3" edge="1">
          <mxGeometry relative="1" as="geometry">
            <mxPoint x="1076" y="682" as="sourcePoint" />
            <mxPoint x="1236" y="682" as="targetPoint" />
          </mxGeometry>
        </mxCell>
        <mxCell id="8UmoSVPX2Ag410WzAP6h-9" value="nome" style="ellipse;whiteSpace=wrap;html=1;align=center;" parent="1" vertex="1">
          <mxGeometry x="686" y="534" width="100" height="40" as="geometry" />
        </mxCell>
        <mxCell id="8UmoSVPX2Ag410WzAP6h-10" value="sinopse" style="ellipse;whiteSpace=wrap;html=1;align=center;" parent="1" vertex="1">
          <mxGeometry x="748" y="487" width="100" height="40" as="geometry" />
        </mxCell>
        <mxCell id="8UmoSVPX2Ag410WzAP6h-11" value="" style="endArrow=none;html=1;rounded=0;" parent="1" source="8UmoSVPX2Ag410WzAP6h-4" target="8UmoSVPX2Ag410WzAP6h-1" edge="1">
          <mxGeometry relative="1" as="geometry">
            <mxPoint x="833" y="803.5" as="sourcePoint" />
            <mxPoint x="993" y="803.5" as="targetPoint" />
          </mxGeometry>
        </mxCell>
        <mxCell id="8UmoSVPX2Ag410WzAP6h-12" value="" style="endArrow=none;html=1;rounded=0;" parent="1" source="8UmoSVPX2Ag410WzAP6h-9" target="8UmoSVPX2Ag410WzAP6h-1" edge="1">
          <mxGeometry relative="1" as="geometry">
            <mxPoint x="786" y="795.5" as="sourcePoint" />
            <mxPoint x="946" y="795.5" as="targetPoint" />
          </mxGeometry>
        </mxCell>
        <mxCell id="8UmoSVPX2Ag410WzAP6h-13" value="" style="endArrow=none;html=1;rounded=0;" parent="1" source="8UmoSVPX2Ag410WzAP6h-10" target="8UmoSVPX2Ag410WzAP6h-1" edge="1">
          <mxGeometry relative="1" as="geometry">
            <mxPoint x="814" y="795.5" as="sourcePoint" />
            <mxPoint x="974" y="795.5" as="targetPoint" />
          </mxGeometry>
        </mxCell>
        <mxCell id="8UmoSVPX2Ag410WzAP6h-16" value="nome" style="ellipse;whiteSpace=wrap;html=1;align=center;" parent="1" vertex="1">
          <mxGeometry x="1126" y="437" width="100" height="40" as="geometry" />
        </mxCell>
        <mxCell id="8UmoSVPX2Ag410WzAP6h-17" value="possui" style="endArrow=ERzeroToMany;html=1;rounded=0;startArrow=ERoneToMany;startFill=0;endFill=0;" parent="1" source="8UmoSVPX2Ag410WzAP6h-3" target="8UmoSVPX2Ag410WzAP6h-1" edge="1">
          <mxGeometry relative="1" as="geometry">
            <mxPoint x="676" y="767" as="sourcePoint" />
            <mxPoint x="836" y="767" as="targetPoint" />
          </mxGeometry>
        </mxCell>
        <mxCell id="8UmoSVPX2Ag410WzAP6h-19" value="" style="endArrow=none;html=1;rounded=0;" parent="1" source="8UmoSVPX2Ag410WzAP6h-16" target="8UmoSVPX2Ag410WzAP6h-3" edge="1">
          <mxGeometry relative="1" as="geometry">
            <mxPoint x="974" y="589" as="sourcePoint" />
            <mxPoint x="1134" y="589" as="targetPoint" />
          </mxGeometry>
        </mxCell>
        <mxCell id="8UmoSVPX2Ag410WzAP6h-20" value="produtora" style="whiteSpace=wrap;html=1;align=center;" parent="1" vertex="1">
          <mxGeometry x="571" y="840" width="100" height="40" as="geometry" />
        </mxCell>
        <mxCell id="8UmoSVPX2Ag410WzAP6h-21" value="está" style="endArrow=ERoneToMany;html=1;rounded=0;endFill=0;startArrow=ERoneToMany;startFill=0;" parent="1" source="8UmoSVPX2Ag410WzAP6h-40" target="8UmoSVPX2Ag410WzAP6h-20" edge="1">
          <mxGeometry relative="1" as="geometry">
            <mxPoint x="458" y="1037" as="sourcePoint" />
            <mxPoint x="618" y="1037" as="targetPoint" />
          </mxGeometry>
        </mxCell>
        <mxCell id="8UmoSVPX2Ag410WzAP6h-23" value="plataforma_streaming" style="whiteSpace=wrap;html=1;align=center;" parent="1" vertex="1">
          <mxGeometry x="1220" y="841" width="137" height="40" as="geometry" />
        </mxCell>
        <mxCell id="8UmoSVPX2Ag410WzAP6h-24" value="personagem" style="whiteSpace=wrap;html=1;align=center;" parent="1" vertex="1">
          <mxGeometry x="495" y="660" width="100" height="40" as="geometry" />
        </mxCell>
        <mxCell id="8UmoSVPX2Ag410WzAP6h-26" value="distribuidora" style="whiteSpace=wrap;html=1;align=center;" parent="1" vertex="1">
          <mxGeometry x="928" y="839" width="100" height="40" as="geometry" />
        </mxCell>
        <mxCell id="8UmoSVPX2Ag410WzAP6h-39" value="cargo" style="whiteSpace=wrap;html=1;align=center;" parent="1" vertex="1">
          <mxGeometry x="187" y="842" width="100" height="40" as="geometry" />
        </mxCell>
        <mxCell id="8UmoSVPX2Ag410WzAP6h-40" value="profissional" style="whiteSpace=wrap;html=1;align=center;" parent="1" vertex="1">
          <mxGeometry x="379" y="842" width="100" height="40" as="geometry" />
        </mxCell>
        <mxCell id="8UmoSVPX2Ag410WzAP6h-41" value="tem" style="endArrow=ERzeroToMany;html=1;rounded=0;startArrow=ERoneToMany;startFill=0;endFill=0;" parent="1" source="8UmoSVPX2Ag410WzAP6h-39" target="8UmoSVPX2Ag410WzAP6h-40" edge="1">
          <mxGeometry relative="1" as="geometry">
            <mxPoint x="334" y="959" as="sourcePoint" />
            <mxPoint x="494" y="959" as="targetPoint" />
          </mxGeometry>
        </mxCell>
        <mxCell id="8UmoSVPX2Ag410WzAP6h-42" value="contem" style="endArrow=ERoneToMany;html=1;rounded=0;endFill=0;startArrow=ERoneToMany;startFill=0;" parent="1" source="8UmoSVPX2Ag410WzAP6h-1" target="8UmoSVPX2Ag410WzAP6h-24" edge="1">
          <mxGeometry relative="1" as="geometry">
            <mxPoint x="936" y="798" as="sourcePoint" />
            <mxPoint x="1096" y="798" as="targetPoint" />
          </mxGeometry>
        </mxCell>
        <mxCell id="8UmoSVPX2Ag410WzAP6h-45" value="atua" style="endArrow=ERzeroToMany;html=1;rounded=0;startArrow=ERoneToMany;startFill=0;endFill=0;" parent="1" source="8UmoSVPX2Ag410WzAP6h-40" target="8UmoSVPX2Ag410WzAP6h-24" edge="1">
          <mxGeometry relative="1" as="geometry">
            <mxPoint x="338" y="680" as="sourcePoint" />
            <mxPoint x="461" y="755" as="targetPoint" />
          </mxGeometry>
        </mxCell>
        <mxCell id="8UmoSVPX2Ag410WzAP6h-46" value="cede" style="endArrow=ERzeroToMany;html=1;rounded=0;endFill=0;startArrow=ERzeroToMany;startFill=0;" parent="1" source="8UmoSVPX2Ag410WzAP6h-26" target="8UmoSVPX2Ag410WzAP6h-23" edge="1">
          <mxGeometry relative="1" as="geometry">
            <mxPoint x="1042" y="790" as="sourcePoint" />
            <mxPoint x="1206" y="792" as="targetPoint" />
          </mxGeometry>
        </mxCell>
        <mxCell id="8UmoSVPX2Ag410WzAP6h-47" value="distribui" style="endArrow=ERoneToMany;html=1;rounded=0;startArrow=ERoneToMany;startFill=0;endFill=0;" parent="1" source="8UmoSVPX2Ag410WzAP6h-1" target="8UmoSVPX2Ag410WzAP6h-26" edge="1">
          <mxGeometry relative="1" as="geometry">
            <mxPoint x="837" y="779" as="sourcePoint" />
            <mxPoint x="997" y="779" as="targetPoint" />
          </mxGeometry>
        </mxCell>
        <mxCell id="8UmoSVPX2Ag410WzAP6h-48" value="produz" style="endArrow=ERoneToMany;html=1;rounded=0;startArrow=ERmandOne;startFill=0;endFill=0;" parent="1" source="8UmoSVPX2Ag410WzAP6h-20" target="8UmoSVPX2Ag410WzAP6h-1" edge="1">
          <mxGeometry relative="1" as="geometry">
            <mxPoint x="656" y="792" as="sourcePoint" />
            <mxPoint x="816" y="792" as="targetPoint" />
          </mxGeometry>
        </mxCell>
        <mxCell id="8UmoSVPX2Ag410WzAP6h-49" value="id" style="ellipse;whiteSpace=wrap;html=1;align=center;fontStyle=4;" parent="1" vertex="1">
          <mxGeometry x="558" y="588" width="100" height="40" as="geometry" />
        </mxCell>
        <mxCell id="8UmoSVPX2Ag410WzAP6h-51" value="id" style="ellipse;whiteSpace=wrap;html=1;align=center;fontStyle=4;" parent="1" vertex="1">
          <mxGeometry x="135" y="943" width="100" height="40" as="geometry" />
        </mxCell>
        <mxCell id="8UmoSVPX2Ag410WzAP6h-52" value="id" style="ellipse;whiteSpace=wrap;html=1;align=center;fontStyle=4;" parent="1" vertex="1">
          <mxGeometry x="444" y="920" width="100" height="40" as="geometry" />
        </mxCell>
        <mxCell id="8UmoSVPX2Ag410WzAP6h-53" value="id" style="ellipse;whiteSpace=wrap;html=1;align=center;fontStyle=4;" parent="1" vertex="1">
          <mxGeometry x="715" y="826" width="100" height="40" as="geometry" />
        </mxCell>
        <mxCell id="8UmoSVPX2Ag410WzAP6h-54" value="id" style="ellipse;whiteSpace=wrap;html=1;align=center;fontStyle=4;" parent="1" vertex="1">
          <mxGeometry x="1054" y="917" width="100" height="40" as="geometry" />
        </mxCell>
        <mxCell id="8UmoSVPX2Ag410WzAP6h-55" value="id" style="ellipse;whiteSpace=wrap;html=1;align=center;fontStyle=4;" parent="1" vertex="1">
          <mxGeometry x="1363" y="917" width="100" height="40" as="geometry" />
        </mxCell>
        <mxCell id="8UmoSVPX2Ag410WzAP6h-56" value="" style="endArrow=none;html=1;rounded=0;" parent="1" source="8UmoSVPX2Ag410WzAP6h-51" target="8UmoSVPX2Ag410WzAP6h-39" edge="1">
          <mxGeometry relative="1" as="geometry">
            <mxPoint x="221" y="1020" as="sourcePoint" />
            <mxPoint x="381" y="1020" as="targetPoint" />
          </mxGeometry>
        </mxCell>
        <mxCell id="8UmoSVPX2Ag410WzAP6h-58" value="" style="endArrow=none;html=1;rounded=0;" parent="1" source="8UmoSVPX2Ag410WzAP6h-40" target="8UmoSVPX2Ag410WzAP6h-76" edge="1">
          <mxGeometry relative="1" as="geometry">
            <mxPoint x="261" y="1076" as="sourcePoint" />
            <mxPoint x="421" y="1076" as="targetPoint" />
          </mxGeometry>
        </mxCell>
        <mxCell id="8UmoSVPX2Ag410WzAP6h-59" value="" style="endArrow=none;html=1;rounded=0;" parent="1" source="8UmoSVPX2Ag410WzAP6h-40" target="8UmoSVPX2Ag410WzAP6h-52" edge="1">
          <mxGeometry relative="1" as="geometry">
            <mxPoint x="327" y="956" as="sourcePoint" />
            <mxPoint x="487" y="956" as="targetPoint" />
          </mxGeometry>
        </mxCell>
        <mxCell id="8UmoSVPX2Ag410WzAP6h-60" value="" style="endArrow=none;html=1;rounded=0;" parent="1" source="8UmoSVPX2Ag410WzAP6h-20" target="8UmoSVPX2Ag410WzAP6h-53" edge="1">
          <mxGeometry relative="1" as="geometry">
            <mxPoint x="491" y="1002" as="sourcePoint" />
            <mxPoint x="651" y="1002" as="targetPoint" />
          </mxGeometry>
        </mxCell>
        <mxCell id="8UmoSVPX2Ag410WzAP6h-61" value="" style="endArrow=none;html=1;rounded=0;" parent="1" source="8UmoSVPX2Ag410WzAP6h-26" target="8UmoSVPX2Ag410WzAP6h-54" edge="1">
          <mxGeometry relative="1" as="geometry">
            <mxPoint x="923" y="1033" as="sourcePoint" />
            <mxPoint x="1083" y="1033" as="targetPoint" />
          </mxGeometry>
        </mxCell>
        <mxCell id="8UmoSVPX2Ag410WzAP6h-62" value="" style="endArrow=none;html=1;rounded=0;" parent="1" source="8UmoSVPX2Ag410WzAP6h-23" target="8UmoSVPX2Ag410WzAP6h-55" edge="1">
          <mxGeometry relative="1" as="geometry">
            <mxPoint x="1195" y="999" as="sourcePoint" />
            <mxPoint x="1355" y="999" as="targetPoint" />
          </mxGeometry>
        </mxCell>
        <mxCell id="8UmoSVPX2Ag410WzAP6h-63" value="idade" style="ellipse;whiteSpace=wrap;html=1;align=center;" parent="1" vertex="1">
          <mxGeometry x="426" y="586" width="100" height="40" as="geometry" />
        </mxCell>
        <mxCell id="8UmoSVPX2Ag410WzAP6h-66" value="nome" style="ellipse;whiteSpace=wrap;html=1;align=center;" parent="1" vertex="1">
          <mxGeometry x="57" y="889" width="100" height="40" as="geometry" />
        </mxCell>
        <mxCell id="8UmoSVPX2Ag410WzAP6h-67" value="" style="endArrow=none;html=1;rounded=0;" parent="1" source="8UmoSVPX2Ag410WzAP6h-66" target="8UmoSVPX2Ag410WzAP6h-39" edge="1">
          <mxGeometry relative="1" as="geometry">
            <mxPoint x="193" y="789" as="sourcePoint" />
            <mxPoint x="353" y="789" as="targetPoint" />
          </mxGeometry>
        </mxCell>
        <mxCell id="8UmoSVPX2Ag410WzAP6h-68" value="" style="endArrow=none;html=1;rounded=0;" parent="1" source="8UmoSVPX2Ag410WzAP6h-73" target="8UmoSVPX2Ag410WzAP6h-39" edge="1">
          <mxGeometry relative="1" as="geometry">
            <mxPoint x="235" y="796" as="sourcePoint" />
            <mxPoint x="395" y="796" as="targetPoint" />
          </mxGeometry>
        </mxCell>
        <mxCell id="8UmoSVPX2Ag410WzAP6h-73" value="descricao" style="ellipse;whiteSpace=wrap;html=1;align=center;" parent="1" vertex="1">
          <mxGeometry x="57" y="821" width="100" height="40" as="geometry" />
        </mxCell>
        <mxCell id="8UmoSVPX2Ag410WzAP6h-74" value="nome" style="ellipse;whiteSpace=wrap;html=1;align=center;" parent="1" vertex="1">
          <mxGeometry x="279" y="917" width="100" height="40" as="geometry" />
        </mxCell>
        <mxCell id="8UmoSVPX2Ag410WzAP6h-75" value="" style="endArrow=none;html=1;rounded=0;" parent="1" source="8UmoSVPX2Ag410WzAP6h-74" target="8UmoSVPX2Ag410WzAP6h-40" edge="1">
          <mxGeometry relative="1" as="geometry">
            <mxPoint x="316" y="1048" as="sourcePoint" />
            <mxPoint x="476" y="1048" as="targetPoint" />
          </mxGeometry>
        </mxCell>
        <mxCell id="8UmoSVPX2Ag410WzAP6h-76" value="nacionalidade" style="ellipse;whiteSpace=wrap;html=1;align=center;" parent="1" vertex="1">
          <mxGeometry x="360" y="960" width="100" height="40" as="geometry" />
        </mxCell>
        <mxCell id="8UmoSVPX2Ag410WzAP6h-77" value="nome" style="ellipse;whiteSpace=wrap;html=1;align=center;" parent="1" vertex="1">
          <mxGeometry x="703" y="882" width="100" height="40" as="geometry" />
        </mxCell>
        <mxCell id="8UmoSVPX2Ag410WzAP6h-78" value="" style="endArrow=none;html=1;rounded=0;" parent="1" source="8UmoSVPX2Ag410WzAP6h-20" target="8UmoSVPX2Ag410WzAP6h-77" edge="1">
          <mxGeometry relative="1" as="geometry">
            <mxPoint x="614" y="1001" as="sourcePoint" />
            <mxPoint x="774" y="1001" as="targetPoint" />
          </mxGeometry>
        </mxCell>
        <mxCell id="8UmoSVPX2Ag410WzAP6h-79" value="nome" style="ellipse;whiteSpace=wrap;html=1;align=center;" parent="1" vertex="1">
          <mxGeometry x="944" y="943" width="100" height="40" as="geometry" />
        </mxCell>
        <mxCell id="8UmoSVPX2Ag410WzAP6h-80" value="" style="endArrow=none;html=1;rounded=0;" parent="1" source="8UmoSVPX2Ag410WzAP6h-26" target="8UmoSVPX2Ag410WzAP6h-79" edge="1">
          <mxGeometry relative="1" as="geometry">
            <mxPoint x="682" y="1024" as="sourcePoint" />
            <mxPoint x="725" y="1038" as="targetPoint" />
          </mxGeometry>
        </mxCell>
        <mxCell id="8UmoSVPX2Ag410WzAP6h-81" value="nome" style="ellipse;whiteSpace=wrap;html=1;align=center;" parent="1" vertex="1">
          <mxGeometry x="1263" y="951" width="100" height="40" as="geometry" />
        </mxCell>
        <mxCell id="8UmoSVPX2Ag410WzAP6h-82" value="" style="endArrow=none;html=1;rounded=0;" parent="1" source="8UmoSVPX2Ag410WzAP6h-23" target="8UmoSVPX2Ag410WzAP6h-81" edge="1">
          <mxGeometry relative="1" as="geometry">
            <mxPoint x="1144" y="1104" as="sourcePoint" />
            <mxPoint x="1209" y="1143" as="targetPoint" />
          </mxGeometry>
        </mxCell>
        <mxCell id="8UmoSVPX2Ag410WzAP6h-83" value="site" style="ellipse;whiteSpace=wrap;html=1;align=center;" parent="1" vertex="1">
          <mxGeometry x="1413" y="854" width="100" height="40" as="geometry" />
        </mxCell>
        <mxCell id="8UmoSVPX2Ag410WzAP6h-84" value="" style="endArrow=none;html=1;rounded=0;" parent="1" source="8UmoSVPX2Ag410WzAP6h-23" target="8UmoSVPX2Ag410WzAP6h-83" edge="1">
          <mxGeometry relative="1" as="geometry">
            <mxPoint x="1441" y="752" as="sourcePoint" />
            <mxPoint x="1506" y="791" as="targetPoint" />
          </mxGeometry>
        </mxCell>
        <mxCell id="8UmoSVPX2Ag410WzAP6h-85" value="" style="endArrow=none;html=1;rounded=0;" parent="1" source="8UmoSVPX2Ag410WzAP6h-63" target="8UmoSVPX2Ag410WzAP6h-24" edge="1">
          <mxGeometry relative="1" as="geometry">
            <mxPoint x="280" y="713" as="sourcePoint" />
            <mxPoint x="440" y="713" as="targetPoint" />
          </mxGeometry>
        </mxCell>
        <mxCell id="8UmoSVPX2Ag410WzAP6h-87" value="" style="endArrow=none;html=1;rounded=0;" parent="1" source="8UmoSVPX2Ag410WzAP6h-7" target="8UmoSVPX2Ag410WzAP6h-24" edge="1">
          <mxGeometry relative="1" as="geometry">
            <mxPoint x="235" y="597" as="sourcePoint" />
            <mxPoint x="395" y="597" as="targetPoint" />
          </mxGeometry>
        </mxCell>
        <mxCell id="8UmoSVPX2Ag410WzAP6h-88" value="" style="endArrow=none;html=1;rounded=0;" parent="1" source="8UmoSVPX2Ag410WzAP6h-49" target="8UmoSVPX2Ag410WzAP6h-24" edge="1">
          <mxGeometry relative="1" as="geometry">
            <mxPoint x="267" y="626" as="sourcePoint" />
            <mxPoint x="427" y="626" as="targetPoint" />
          </mxGeometry>
        </mxCell>
        <mxCell id="8UmoSVPX2Ag410WzAP6h-89" value="&lt;font style=&quot;font-size: 45px;&quot;&gt;&lt;b&gt;Modelo Conceitual&lt;/b&gt;&lt;/font&gt;" style="text;html=1;align=center;verticalAlign=middle;resizable=0;points=[];autosize=1;strokeColor=none;fillColor=none;" parent="1" vertex="1">
          <mxGeometry x="59" y="318" width="418" height="66" as="geometry" />
        </mxCell>
        <mxCell id="8UmoSVPX2Ag410WzAP6h-90" value="&lt;font style=&quot;font-size: 45px;&quot;&gt;&lt;b&gt;Modelo Lógico&lt;/b&gt;&lt;/font&gt;" style="text;html=1;align=center;verticalAlign=middle;resizable=0;points=[];autosize=1;strokeColor=none;fillColor=none;" parent="1" vertex="1">
          <mxGeometry x="1753" y="300" width="335" height="66" as="geometry" />
        </mxCell>
        <mxCell id="8UmoSVPX2Ag410WzAP6h-91" value="tbl_filme" style="shape=table;startSize=30;container=1;collapsible=1;childLayout=tableLayout;fixedRows=1;rowLines=0;fontStyle=1;align=center;resizeLast=1;html=1;" parent="1" vertex="1">
          <mxGeometry x="3101" y="448" width="245.33333333333303" height="300" as="geometry" />
        </mxCell>
        <mxCell id="8UmoSVPX2Ag410WzAP6h-92" value="" style="shape=tableRow;horizontal=0;startSize=0;swimlaneHead=0;swimlaneBody=0;fillColor=none;collapsible=0;dropTarget=0;points=[[0,0.5],[1,0.5]];portConstraint=eastwest;top=0;left=0;right=0;bottom=1;" parent="8UmoSVPX2Ag410WzAP6h-91" vertex="1">
          <mxGeometry y="30" width="245.33333333333303" height="30" as="geometry" />
        </mxCell>
        <mxCell id="8UmoSVPX2Ag410WzAP6h-93" value="PK" style="shape=partialRectangle;connectable=0;fillColor=none;top=0;left=0;bottom=0;right=0;fontStyle=1;overflow=hidden;whiteSpace=wrap;html=1;" parent="8UmoSVPX2Ag410WzAP6h-92" vertex="1">
          <mxGeometry width="30" height="30" as="geometry">
            <mxRectangle width="30" height="30" as="alternateBounds" />
          </mxGeometry>
        </mxCell>
        <mxCell id="8UmoSVPX2Ag410WzAP6h-94" value="id: INT" style="shape=partialRectangle;connectable=0;fillColor=none;top=0;left=0;bottom=0;right=0;align=left;spacingLeft=6;fontStyle=5;overflow=hidden;whiteSpace=wrap;html=1;" parent="8UmoSVPX2Ag410WzAP6h-92" vertex="1">
          <mxGeometry x="30" width="215.33333333333303" height="30" as="geometry">
            <mxRectangle width="215.33333333333303" height="30" as="alternateBounds" />
          </mxGeometry>
        </mxCell>
        <mxCell id="8UmoSVPX2Ag410WzAP6h-95" value="" style="shape=tableRow;horizontal=0;startSize=0;swimlaneHead=0;swimlaneBody=0;fillColor=none;collapsible=0;dropTarget=0;points=[[0,0.5],[1,0.5]];portConstraint=eastwest;top=0;left=0;right=0;bottom=0;" parent="8UmoSVPX2Ag410WzAP6h-91" vertex="1">
          <mxGeometry y="60" width="245.33333333333303" height="30" as="geometry" />
        </mxCell>
        <mxCell id="8UmoSVPX2Ag410WzAP6h-96" value="" style="shape=partialRectangle;connectable=0;fillColor=none;top=0;left=0;bottom=0;right=0;editable=1;overflow=hidden;whiteSpace=wrap;html=1;" parent="8UmoSVPX2Ag410WzAP6h-95" vertex="1">
          <mxGeometry width="30" height="30" as="geometry">
            <mxRectangle width="30" height="30" as="alternateBounds" />
          </mxGeometry>
        </mxCell>
        <mxCell id="8UmoSVPX2Ag410WzAP6h-97" value="nome: VARCHAR(100), NOT NULL" style="shape=partialRectangle;connectable=0;fillColor=none;top=0;left=0;bottom=0;right=0;align=left;spacingLeft=6;overflow=hidden;whiteSpace=wrap;html=1;" parent="8UmoSVPX2Ag410WzAP6h-95" vertex="1">
          <mxGeometry x="30" width="215.33333333333303" height="30" as="geometry">
            <mxRectangle width="215.33333333333303" height="30" as="alternateBounds" />
          </mxGeometry>
        </mxCell>
        <mxCell id="8UmoSVPX2Ag410WzAP6h-98" value="" style="shape=tableRow;horizontal=0;startSize=0;swimlaneHead=0;swimlaneBody=0;fillColor=none;collapsible=0;dropTarget=0;points=[[0,0.5],[1,0.5]];portConstraint=eastwest;top=0;left=0;right=0;bottom=0;" parent="8UmoSVPX2Ag410WzAP6h-91" vertex="1">
          <mxGeometry y="90" width="245.33333333333303" height="30" as="geometry" />
        </mxCell>
        <mxCell id="8UmoSVPX2Ag410WzAP6h-99" value="" style="shape=partialRectangle;connectable=0;fillColor=none;top=0;left=0;bottom=0;right=0;editable=1;overflow=hidden;whiteSpace=wrap;html=1;" parent="8UmoSVPX2Ag410WzAP6h-98" vertex="1">
          <mxGeometry width="30" height="30" as="geometry">
            <mxRectangle width="30" height="30" as="alternateBounds" />
          </mxGeometry>
        </mxCell>
        <mxCell id="8UmoSVPX2Ag410WzAP6h-100" value="sinopse: TEXT" style="shape=partialRectangle;connectable=0;fillColor=none;top=0;left=0;bottom=0;right=0;align=left;spacingLeft=6;overflow=hidden;whiteSpace=wrap;html=1;" parent="8UmoSVPX2Ag410WzAP6h-98" vertex="1">
          <mxGeometry x="30" width="215.33333333333303" height="30" as="geometry">
            <mxRectangle width="215.33333333333303" height="30" as="alternateBounds" />
          </mxGeometry>
        </mxCell>
        <mxCell id="8UmoSVPX2Ag410WzAP6h-101" value="" style="shape=tableRow;horizontal=0;startSize=0;swimlaneHead=0;swimlaneBody=0;fillColor=none;collapsible=0;dropTarget=0;points=[[0,0.5],[1,0.5]];portConstraint=eastwest;top=0;left=0;right=0;bottom=0;" parent="8UmoSVPX2Ag410WzAP6h-91" vertex="1">
          <mxGeometry y="120" width="245.33333333333303" height="30" as="geometry" />
        </mxCell>
        <mxCell id="8UmoSVPX2Ag410WzAP6h-102" value="" style="shape=partialRectangle;connectable=0;fillColor=none;top=0;left=0;bottom=0;right=0;editable=1;overflow=hidden;whiteSpace=wrap;html=1;" parent="8UmoSVPX2Ag410WzAP6h-101" vertex="1">
          <mxGeometry width="30" height="30" as="geometry">
            <mxRectangle width="30" height="30" as="alternateBounds" />
          </mxGeometry>
        </mxCell>
        <mxCell id="8UmoSVPX2Ag410WzAP6h-103" value="data_lancamento: DATE" style="shape=partialRectangle;connectable=0;fillColor=none;top=0;left=0;bottom=0;right=0;align=left;spacingLeft=6;overflow=hidden;whiteSpace=wrap;html=1;" parent="8UmoSVPX2Ag410WzAP6h-101" vertex="1">
          <mxGeometry x="30" width="215.33333333333303" height="30" as="geometry">
            <mxRectangle width="215.33333333333303" height="30" as="alternateBounds" />
          </mxGeometry>
        </mxCell>
        <mxCell id="8UmoSVPX2Ag410WzAP6h-109" value="" style="shape=tableRow;horizontal=0;startSize=0;swimlaneHead=0;swimlaneBody=0;fillColor=none;collapsible=0;dropTarget=0;points=[[0,0.5],[1,0.5]];portConstraint=eastwest;top=0;left=0;right=0;bottom=0;" parent="8UmoSVPX2Ag410WzAP6h-91" vertex="1">
          <mxGeometry y="150" width="245.33333333333303" height="30" as="geometry" />
        </mxCell>
        <mxCell id="8UmoSVPX2Ag410WzAP6h-110" value="" style="shape=partialRectangle;connectable=0;fillColor=none;top=0;left=0;bottom=0;right=0;editable=1;overflow=hidden;" parent="8UmoSVPX2Ag410WzAP6h-109" vertex="1">
          <mxGeometry width="30" height="30" as="geometry">
            <mxRectangle width="30" height="30" as="alternateBounds" />
          </mxGeometry>
        </mxCell>
        <mxCell id="8UmoSVPX2Ag410WzAP6h-111" value="duracao TIME, NOT NULL" style="shape=partialRectangle;connectable=0;fillColor=none;top=0;left=0;bottom=0;right=0;align=left;spacingLeft=6;overflow=hidden;" parent="8UmoSVPX2Ag410WzAP6h-109" vertex="1">
          <mxGeometry x="30" width="215.33333333333303" height="30" as="geometry">
            <mxRectangle width="215.33333333333303" height="30" as="alternateBounds" />
          </mxGeometry>
        </mxCell>
        <mxCell id="8UmoSVPX2Ag410WzAP6h-113" value="" style="shape=tableRow;horizontal=0;startSize=0;swimlaneHead=0;swimlaneBody=0;fillColor=none;collapsible=0;dropTarget=0;points=[[0,0.5],[1,0.5]];portConstraint=eastwest;top=0;left=0;right=0;bottom=0;" parent="8UmoSVPX2Ag410WzAP6h-91" vertex="1">
          <mxGeometry y="180" width="245.33333333333303" height="30" as="geometry" />
        </mxCell>
        <mxCell id="8UmoSVPX2Ag410WzAP6h-114" value="" style="shape=partialRectangle;connectable=0;fillColor=none;top=0;left=0;bottom=0;right=0;editable=1;overflow=hidden;" parent="8UmoSVPX2Ag410WzAP6h-113" vertex="1">
          <mxGeometry width="30" height="30" as="geometry">
            <mxRectangle width="30" height="30" as="alternateBounds" />
          </mxGeometry>
        </mxCell>
        <mxCell id="8UmoSVPX2Ag410WzAP6h-115" value="trailer: VARCHAR(200)" style="shape=partialRectangle;connectable=0;fillColor=none;top=0;left=0;bottom=0;right=0;align=left;spacingLeft=6;overflow=hidden;" parent="8UmoSVPX2Ag410WzAP6h-113" vertex="1">
          <mxGeometry x="30" width="215.33333333333303" height="30" as="geometry">
            <mxRectangle width="215.33333333333303" height="30" as="alternateBounds" />
          </mxGeometry>
        </mxCell>
        <mxCell id="8UmoSVPX2Ag410WzAP6h-105" value="" style="shape=tableRow;horizontal=0;startSize=0;swimlaneHead=0;swimlaneBody=0;fillColor=none;collapsible=0;dropTarget=0;points=[[0,0.5],[1,0.5]];portConstraint=eastwest;top=0;left=0;right=0;bottom=0;" parent="8UmoSVPX2Ag410WzAP6h-91" vertex="1">
          <mxGeometry y="210" width="245.33333333333303" height="30" as="geometry" />
        </mxCell>
        <mxCell id="8UmoSVPX2Ag410WzAP6h-106" value="" style="shape=partialRectangle;connectable=0;fillColor=none;top=0;left=0;bottom=0;right=0;editable=1;overflow=hidden;" parent="8UmoSVPX2Ag410WzAP6h-105" vertex="1">
          <mxGeometry width="30" height="30" as="geometry">
            <mxRectangle width="30" height="30" as="alternateBounds" />
          </mxGeometry>
        </mxCell>
        <mxCell id="8UmoSVPX2Ag410WzAP6h-107" value="capa: VARCHAR(200), NOT NULL" style="shape=partialRectangle;connectable=0;fillColor=none;top=0;left=0;bottom=0;right=0;align=left;spacingLeft=6;overflow=hidden;" parent="8UmoSVPX2Ag410WzAP6h-105" vertex="1">
          <mxGeometry x="30" width="215.33333333333303" height="30" as="geometry">
            <mxRectangle width="215.33333333333303" height="30" as="alternateBounds" />
          </mxGeometry>
        </mxCell>
        <mxCell id="8UmoSVPX2Ag410WzAP6h-400" value="" style="shape=tableRow;horizontal=0;startSize=0;swimlaneHead=0;swimlaneBody=0;fillColor=none;collapsible=0;dropTarget=0;points=[[0,0.5],[1,0.5]];portConstraint=eastwest;top=0;left=0;right=0;bottom=0;" parent="8UmoSVPX2Ag410WzAP6h-91" vertex="1">
          <mxGeometry y="240" width="245.33333333333303" height="30" as="geometry" />
        </mxCell>
        <mxCell id="8UmoSVPX2Ag410WzAP6h-401" value="FK" style="shape=partialRectangle;connectable=0;fillColor=none;top=0;left=0;bottom=0;right=0;fontStyle=0;overflow=hidden;whiteSpace=wrap;html=1;" parent="8UmoSVPX2Ag410WzAP6h-400" vertex="1">
          <mxGeometry width="30" height="30" as="geometry">
            <mxRectangle width="30" height="30" as="alternateBounds" />
          </mxGeometry>
        </mxCell>
        <mxCell id="8UmoSVPX2Ag410WzAP6h-402" value="id_producao: INT, NOT NULL" style="shape=partialRectangle;connectable=0;fillColor=none;top=0;left=0;bottom=0;right=0;align=left;spacingLeft=6;fontStyle=0;overflow=hidden;whiteSpace=wrap;html=1;" parent="8UmoSVPX2Ag410WzAP6h-400" vertex="1">
          <mxGeometry x="30" width="215.33333333333303" height="30" as="geometry">
            <mxRectangle width="215.33333333333303" height="30" as="alternateBounds" />
          </mxGeometry>
        </mxCell>
        <mxCell id="QKPFVHAe18mmnaoQ-rNV-48" value="" style="shape=tableRow;horizontal=0;startSize=0;swimlaneHead=0;swimlaneBody=0;fillColor=none;collapsible=0;dropTarget=0;points=[[0,0.5],[1,0.5]];portConstraint=eastwest;top=0;left=0;right=0;bottom=0;" vertex="1" parent="8UmoSVPX2Ag410WzAP6h-91">
          <mxGeometry y="270" width="245.33333333333303" height="30" as="geometry" />
        </mxCell>
        <mxCell id="QKPFVHAe18mmnaoQ-rNV-49" value="FK" style="shape=partialRectangle;connectable=0;fillColor=none;top=0;left=0;bottom=0;right=0;fontStyle=0;overflow=hidden;whiteSpace=wrap;html=1;" vertex="1" parent="QKPFVHAe18mmnaoQ-rNV-48">
          <mxGeometry width="30" height="30" as="geometry">
            <mxRectangle width="30" height="30" as="alternateBounds" />
          </mxGeometry>
        </mxCell>
        <mxCell id="QKPFVHAe18mmnaoQ-rNV-50" value="id_midia: INT, NOT NULL" style="shape=partialRectangle;connectable=0;fillColor=none;top=0;left=0;bottom=0;right=0;align=left;spacingLeft=6;fontStyle=0;overflow=hidden;whiteSpace=wrap;html=1;" vertex="1" parent="QKPFVHAe18mmnaoQ-rNV-48">
          <mxGeometry x="30" width="215.33333333333303" height="30" as="geometry">
            <mxRectangle width="215.33333333333303" height="30" as="alternateBounds" />
          </mxGeometry>
        </mxCell>
        <mxCell id="8UmoSVPX2Ag410WzAP6h-150" value="tbl_personagem" style="shape=table;startSize=30;container=1;collapsible=1;childLayout=tableLayout;fixedRows=1;rowLines=0;fontStyle=1;align=center;resizeLast=1;html=1;" parent="1" vertex="1">
          <mxGeometry x="2516" y="451" width="240.05263157894734" height="180" as="geometry" />
        </mxCell>
        <mxCell id="8UmoSVPX2Ag410WzAP6h-151" value="" style="shape=tableRow;horizontal=0;startSize=0;swimlaneHead=0;swimlaneBody=0;fillColor=none;collapsible=0;dropTarget=0;points=[[0,0.5],[1,0.5]];portConstraint=eastwest;top=0;left=0;right=0;bottom=1;" parent="8UmoSVPX2Ag410WzAP6h-150" vertex="1">
          <mxGeometry y="30" width="240.05263157894734" height="30" as="geometry" />
        </mxCell>
        <mxCell id="8UmoSVPX2Ag410WzAP6h-152" value="PK" style="shape=partialRectangle;connectable=0;fillColor=none;top=0;left=0;bottom=0;right=0;fontStyle=1;overflow=hidden;whiteSpace=wrap;html=1;" parent="8UmoSVPX2Ag410WzAP6h-151" vertex="1">
          <mxGeometry width="30" height="30" as="geometry">
            <mxRectangle width="30" height="30" as="alternateBounds" />
          </mxGeometry>
        </mxCell>
        <mxCell id="8UmoSVPX2Ag410WzAP6h-153" value="id: INT" style="shape=partialRectangle;connectable=0;fillColor=none;top=0;left=0;bottom=0;right=0;align=left;spacingLeft=6;fontStyle=5;overflow=hidden;whiteSpace=wrap;html=1;" parent="8UmoSVPX2Ag410WzAP6h-151" vertex="1">
          <mxGeometry x="30" width="210.05263157894734" height="30" as="geometry">
            <mxRectangle width="210.05263157894734" height="30" as="alternateBounds" />
          </mxGeometry>
        </mxCell>
        <mxCell id="8UmoSVPX2Ag410WzAP6h-154" value="" style="shape=tableRow;horizontal=0;startSize=0;swimlaneHead=0;swimlaneBody=0;fillColor=none;collapsible=0;dropTarget=0;points=[[0,0.5],[1,0.5]];portConstraint=eastwest;top=0;left=0;right=0;bottom=0;" parent="8UmoSVPX2Ag410WzAP6h-150" vertex="1">
          <mxGeometry y="60" width="240.05263157894734" height="30" as="geometry" />
        </mxCell>
        <mxCell id="8UmoSVPX2Ag410WzAP6h-155" value="" style="shape=partialRectangle;connectable=0;fillColor=none;top=0;left=0;bottom=0;right=0;editable=1;overflow=hidden;whiteSpace=wrap;html=1;" parent="8UmoSVPX2Ag410WzAP6h-154" vertex="1">
          <mxGeometry width="30" height="30" as="geometry">
            <mxRectangle width="30" height="30" as="alternateBounds" />
          </mxGeometry>
        </mxCell>
        <mxCell id="8UmoSVPX2Ag410WzAP6h-156" value="nome: VARCHAR(200), NOT NULL" style="shape=partialRectangle;connectable=0;fillColor=none;top=0;left=0;bottom=0;right=0;align=left;spacingLeft=6;overflow=hidden;whiteSpace=wrap;html=1;" parent="8UmoSVPX2Ag410WzAP6h-154" vertex="1">
          <mxGeometry x="30" width="210.05263157894734" height="30" as="geometry">
            <mxRectangle width="210.05263157894734" height="30" as="alternateBounds" />
          </mxGeometry>
        </mxCell>
        <mxCell id="8UmoSVPX2Ag410WzAP6h-157" value="" style="shape=tableRow;horizontal=0;startSize=0;swimlaneHead=0;swimlaneBody=0;fillColor=none;collapsible=0;dropTarget=0;points=[[0,0.5],[1,0.5]];portConstraint=eastwest;top=0;left=0;right=0;bottom=0;" parent="8UmoSVPX2Ag410WzAP6h-150" vertex="1">
          <mxGeometry y="90" width="240.05263157894734" height="30" as="geometry" />
        </mxCell>
        <mxCell id="8UmoSVPX2Ag410WzAP6h-158" value="" style="shape=partialRectangle;connectable=0;fillColor=none;top=0;left=0;bottom=0;right=0;editable=1;overflow=hidden;whiteSpace=wrap;html=1;" parent="8UmoSVPX2Ag410WzAP6h-157" vertex="1">
          <mxGeometry width="30" height="30" as="geometry">
            <mxRectangle width="30" height="30" as="alternateBounds" />
          </mxGeometry>
        </mxCell>
        <mxCell id="8UmoSVPX2Ag410WzAP6h-159" value="idade: INT" style="shape=partialRectangle;connectable=0;fillColor=none;top=0;left=0;bottom=0;right=0;align=left;spacingLeft=6;overflow=hidden;whiteSpace=wrap;html=1;" parent="8UmoSVPX2Ag410WzAP6h-157" vertex="1">
          <mxGeometry x="30" width="210.05263157894734" height="30" as="geometry">
            <mxRectangle width="210.05263157894734" height="30" as="alternateBounds" />
          </mxGeometry>
        </mxCell>
        <mxCell id="8UmoSVPX2Ag410WzAP6h-160" value="" style="shape=tableRow;horizontal=0;startSize=0;swimlaneHead=0;swimlaneBody=0;fillColor=none;collapsible=0;dropTarget=0;points=[[0,0.5],[1,0.5]];portConstraint=eastwest;top=0;left=0;right=0;bottom=0;" parent="8UmoSVPX2Ag410WzAP6h-150" vertex="1">
          <mxGeometry y="120" width="240.05263157894734" height="30" as="geometry" />
        </mxCell>
        <mxCell id="8UmoSVPX2Ag410WzAP6h-161" value="" style="shape=partialRectangle;connectable=0;fillColor=none;top=0;left=0;bottom=0;right=0;editable=1;overflow=hidden;whiteSpace=wrap;html=1;" parent="8UmoSVPX2Ag410WzAP6h-160" vertex="1">
          <mxGeometry width="30" height="30" as="geometry">
            <mxRectangle width="30" height="30" as="alternateBounds" />
          </mxGeometry>
        </mxCell>
        <mxCell id="8UmoSVPX2Ag410WzAP6h-162" value="descricao: VARCHAR(200)" style="shape=partialRectangle;connectable=0;fillColor=none;top=0;left=0;bottom=0;right=0;align=left;spacingLeft=6;overflow=hidden;whiteSpace=wrap;html=1;" parent="8UmoSVPX2Ag410WzAP6h-160" vertex="1">
          <mxGeometry x="30" width="210.05263157894734" height="30" as="geometry">
            <mxRectangle width="210.05263157894734" height="30" as="alternateBounds" />
          </mxGeometry>
        </mxCell>
        <mxCell id="8UmoSVPX2Ag410WzAP6h-163" value="" style="shape=tableRow;horizontal=0;startSize=0;swimlaneHead=0;swimlaneBody=0;fillColor=none;collapsible=0;dropTarget=0;points=[[0,0.5],[1,0.5]];portConstraint=eastwest;top=0;left=0;right=0;bottom=0;" parent="8UmoSVPX2Ag410WzAP6h-150" vertex="1">
          <mxGeometry y="150" width="240.05263157894734" height="30" as="geometry" />
        </mxCell>
        <mxCell id="8UmoSVPX2Ag410WzAP6h-164" value="" style="shape=partialRectangle;connectable=0;fillColor=none;top=0;left=0;bottom=0;right=0;editable=1;overflow=hidden;" parent="8UmoSVPX2Ag410WzAP6h-163" vertex="1">
          <mxGeometry width="30" height="30" as="geometry">
            <mxRectangle width="30" height="30" as="alternateBounds" />
          </mxGeometry>
        </mxCell>
        <mxCell id="8UmoSVPX2Ag410WzAP6h-165" value="papel: VARCHAR(100), NOT NULL" style="shape=partialRectangle;connectable=0;fillColor=none;top=0;left=0;bottom=0;right=0;align=left;spacingLeft=6;overflow=hidden;" parent="8UmoSVPX2Ag410WzAP6h-163" vertex="1">
          <mxGeometry x="30" width="210.05263157894734" height="30" as="geometry">
            <mxRectangle width="210.05263157894734" height="30" as="alternateBounds" />
          </mxGeometry>
        </mxCell>
        <mxCell id="8UmoSVPX2Ag410WzAP6h-191" value="tbl_genero" style="shape=table;startSize=30;container=1;collapsible=1;childLayout=tableLayout;fixedRows=1;rowLines=0;fontStyle=1;align=center;resizeLast=1;html=1;" parent="1" vertex="1">
          <mxGeometry x="3743" y="506" width="180" height="90" as="geometry" />
        </mxCell>
        <mxCell id="8UmoSVPX2Ag410WzAP6h-192" value="" style="shape=tableRow;horizontal=0;startSize=0;swimlaneHead=0;swimlaneBody=0;fillColor=none;collapsible=0;dropTarget=0;points=[[0,0.5],[1,0.5]];portConstraint=eastwest;top=0;left=0;right=0;bottom=1;" parent="8UmoSVPX2Ag410WzAP6h-191" vertex="1">
          <mxGeometry y="30" width="180" height="30" as="geometry" />
        </mxCell>
        <mxCell id="8UmoSVPX2Ag410WzAP6h-193" value="PK" style="shape=partialRectangle;connectable=0;fillColor=none;top=0;left=0;bottom=0;right=0;fontStyle=1;overflow=hidden;whiteSpace=wrap;html=1;" parent="8UmoSVPX2Ag410WzAP6h-192" vertex="1">
          <mxGeometry width="30" height="30" as="geometry">
            <mxRectangle width="30" height="30" as="alternateBounds" />
          </mxGeometry>
        </mxCell>
        <mxCell id="8UmoSVPX2Ag410WzAP6h-194" value="id: INT" style="shape=partialRectangle;connectable=0;fillColor=none;top=0;left=0;bottom=0;right=0;align=left;spacingLeft=6;fontStyle=5;overflow=hidden;whiteSpace=wrap;html=1;" parent="8UmoSVPX2Ag410WzAP6h-192" vertex="1">
          <mxGeometry x="30" width="150" height="30" as="geometry">
            <mxRectangle width="150" height="30" as="alternateBounds" />
          </mxGeometry>
        </mxCell>
        <mxCell id="8UmoSVPX2Ag410WzAP6h-195" value="" style="shape=tableRow;horizontal=0;startSize=0;swimlaneHead=0;swimlaneBody=0;fillColor=none;collapsible=0;dropTarget=0;points=[[0,0.5],[1,0.5]];portConstraint=eastwest;top=0;left=0;right=0;bottom=0;" parent="8UmoSVPX2Ag410WzAP6h-191" vertex="1">
          <mxGeometry y="60" width="180" height="30" as="geometry" />
        </mxCell>
        <mxCell id="8UmoSVPX2Ag410WzAP6h-196" value="" style="shape=partialRectangle;connectable=0;fillColor=none;top=0;left=0;bottom=0;right=0;editable=1;overflow=hidden;whiteSpace=wrap;html=1;" parent="8UmoSVPX2Ag410WzAP6h-195" vertex="1">
          <mxGeometry width="30" height="30" as="geometry">
            <mxRectangle width="30" height="30" as="alternateBounds" />
          </mxGeometry>
        </mxCell>
        <mxCell id="8UmoSVPX2Ag410WzAP6h-197" value="nome: VARCHAR(50)" style="shape=partialRectangle;connectable=0;fillColor=none;top=0;left=0;bottom=0;right=0;align=left;spacingLeft=6;overflow=hidden;whiteSpace=wrap;html=1;" parent="8UmoSVPX2Ag410WzAP6h-195" vertex="1">
          <mxGeometry x="30" width="150" height="30" as="geometry">
            <mxRectangle width="150" height="30" as="alternateBounds" />
          </mxGeometry>
        </mxCell>
        <mxCell id="8UmoSVPX2Ag410WzAP6h-218" value="tbl_distribuidora" style="shape=table;startSize=30;container=1;collapsible=1;childLayout=tableLayout;fixedRows=1;rowLines=0;fontStyle=1;align=center;resizeLast=1;html=1;" parent="1" vertex="1">
          <mxGeometry x="3427.06" y="826" width="237.44736842105272" height="150" as="geometry" />
        </mxCell>
        <mxCell id="8UmoSVPX2Ag410WzAP6h-219" value="" style="shape=tableRow;horizontal=0;startSize=0;swimlaneHead=0;swimlaneBody=0;fillColor=none;collapsible=0;dropTarget=0;points=[[0,0.5],[1,0.5]];portConstraint=eastwest;top=0;left=0;right=0;bottom=1;" parent="8UmoSVPX2Ag410WzAP6h-218" vertex="1">
          <mxGeometry y="30" width="237.44736842105272" height="30" as="geometry" />
        </mxCell>
        <mxCell id="8UmoSVPX2Ag410WzAP6h-220" value="PK" style="shape=partialRectangle;connectable=0;fillColor=none;top=0;left=0;bottom=0;right=0;fontStyle=1;overflow=hidden;whiteSpace=wrap;html=1;" parent="8UmoSVPX2Ag410WzAP6h-219" vertex="1">
          <mxGeometry width="30" height="30" as="geometry">
            <mxRectangle width="30" height="30" as="alternateBounds" />
          </mxGeometry>
        </mxCell>
        <mxCell id="8UmoSVPX2Ag410WzAP6h-221" value="id: INT" style="shape=partialRectangle;connectable=0;fillColor=none;top=0;left=0;bottom=0;right=0;align=left;spacingLeft=6;fontStyle=5;overflow=hidden;whiteSpace=wrap;html=1;" parent="8UmoSVPX2Ag410WzAP6h-219" vertex="1">
          <mxGeometry x="30" width="207.44736842105272" height="30" as="geometry">
            <mxRectangle width="207.44736842105272" height="30" as="alternateBounds" />
          </mxGeometry>
        </mxCell>
        <mxCell id="8UmoSVPX2Ag410WzAP6h-222" value="" style="shape=tableRow;horizontal=0;startSize=0;swimlaneHead=0;swimlaneBody=0;fillColor=none;collapsible=0;dropTarget=0;points=[[0,0.5],[1,0.5]];portConstraint=eastwest;top=0;left=0;right=0;bottom=0;" parent="8UmoSVPX2Ag410WzAP6h-218" vertex="1">
          <mxGeometry y="60" width="237.44736842105272" height="30" as="geometry" />
        </mxCell>
        <mxCell id="8UmoSVPX2Ag410WzAP6h-223" value="" style="shape=partialRectangle;connectable=0;fillColor=none;top=0;left=0;bottom=0;right=0;editable=1;overflow=hidden;whiteSpace=wrap;html=1;" parent="8UmoSVPX2Ag410WzAP6h-222" vertex="1">
          <mxGeometry width="30" height="30" as="geometry">
            <mxRectangle width="30" height="30" as="alternateBounds" />
          </mxGeometry>
        </mxCell>
        <mxCell id="8UmoSVPX2Ag410WzAP6h-224" value="nome: VARCHAR(100), NOT NULL" style="shape=partialRectangle;connectable=0;fillColor=none;top=0;left=0;bottom=0;right=0;align=left;spacingLeft=6;overflow=hidden;whiteSpace=wrap;html=1;" parent="8UmoSVPX2Ag410WzAP6h-222" vertex="1">
          <mxGeometry x="30" width="207.44736842105272" height="30" as="geometry">
            <mxRectangle width="207.44736842105272" height="30" as="alternateBounds" />
          </mxGeometry>
        </mxCell>
        <mxCell id="8UmoSVPX2Ag410WzAP6h-225" value="" style="shape=tableRow;horizontal=0;startSize=0;swimlaneHead=0;swimlaneBody=0;fillColor=none;collapsible=0;dropTarget=0;points=[[0,0.5],[1,0.5]];portConstraint=eastwest;top=0;left=0;right=0;bottom=0;" parent="8UmoSVPX2Ag410WzAP6h-218" vertex="1">
          <mxGeometry y="90" width="237.44736842105272" height="30" as="geometry" />
        </mxCell>
        <mxCell id="8UmoSVPX2Ag410WzAP6h-226" value="" style="shape=partialRectangle;connectable=0;fillColor=none;top=0;left=0;bottom=0;right=0;editable=1;overflow=hidden;whiteSpace=wrap;html=1;" parent="8UmoSVPX2Ag410WzAP6h-225" vertex="1">
          <mxGeometry width="30" height="30" as="geometry">
            <mxRectangle width="30" height="30" as="alternateBounds" />
          </mxGeometry>
        </mxCell>
        <mxCell id="8UmoSVPX2Ag410WzAP6h-227" value="pais_origem: VARCHAR(50)" style="shape=partialRectangle;connectable=0;fillColor=none;top=0;left=0;bottom=0;right=0;align=left;spacingLeft=6;overflow=hidden;whiteSpace=wrap;html=1;" parent="8UmoSVPX2Ag410WzAP6h-225" vertex="1">
          <mxGeometry x="30" width="207.44736842105272" height="30" as="geometry">
            <mxRectangle width="207.44736842105272" height="30" as="alternateBounds" />
          </mxGeometry>
        </mxCell>
        <mxCell id="8UmoSVPX2Ag410WzAP6h-228" value="" style="shape=tableRow;horizontal=0;startSize=0;swimlaneHead=0;swimlaneBody=0;fillColor=none;collapsible=0;dropTarget=0;points=[[0,0.5],[1,0.5]];portConstraint=eastwest;top=0;left=0;right=0;bottom=0;" parent="8UmoSVPX2Ag410WzAP6h-218" vertex="1">
          <mxGeometry y="120" width="237.44736842105272" height="30" as="geometry" />
        </mxCell>
        <mxCell id="8UmoSVPX2Ag410WzAP6h-229" value="" style="shape=partialRectangle;connectable=0;fillColor=none;top=0;left=0;bottom=0;right=0;editable=1;overflow=hidden;whiteSpace=wrap;html=1;" parent="8UmoSVPX2Ag410WzAP6h-228" vertex="1">
          <mxGeometry width="30" height="30" as="geometry">
            <mxRectangle width="30" height="30" as="alternateBounds" />
          </mxGeometry>
        </mxCell>
        <mxCell id="8UmoSVPX2Ag410WzAP6h-230" value="site: VARCHAR(255)" style="shape=partialRectangle;connectable=0;fillColor=none;top=0;left=0;bottom=0;right=0;align=left;spacingLeft=6;overflow=hidden;whiteSpace=wrap;html=1;" parent="8UmoSVPX2Ag410WzAP6h-228" vertex="1">
          <mxGeometry x="30" width="207.44736842105272" height="30" as="geometry">
            <mxRectangle width="207.44736842105272" height="30" as="alternateBounds" />
          </mxGeometry>
        </mxCell>
        <mxCell id="8UmoSVPX2Ag410WzAP6h-244" value="tbl_plataforma_streaming" style="shape=table;startSize=30;container=1;collapsible=1;childLayout=tableLayout;fixedRows=1;rowLines=0;fontStyle=1;align=center;resizeLast=1;html=1;" parent="1" vertex="1">
          <mxGeometry x="3424.07" y="1005" width="238.73913043478274" height="150" as="geometry" />
        </mxCell>
        <mxCell id="8UmoSVPX2Ag410WzAP6h-245" value="" style="shape=tableRow;horizontal=0;startSize=0;swimlaneHead=0;swimlaneBody=0;fillColor=none;collapsible=0;dropTarget=0;points=[[0,0.5],[1,0.5]];portConstraint=eastwest;top=0;left=0;right=0;bottom=1;" parent="8UmoSVPX2Ag410WzAP6h-244" vertex="1">
          <mxGeometry y="30" width="238.73913043478274" height="30" as="geometry" />
        </mxCell>
        <mxCell id="8UmoSVPX2Ag410WzAP6h-246" value="PK" style="shape=partialRectangle;connectable=0;fillColor=none;top=0;left=0;bottom=0;right=0;fontStyle=1;overflow=hidden;whiteSpace=wrap;html=1;" parent="8UmoSVPX2Ag410WzAP6h-245" vertex="1">
          <mxGeometry width="30" height="30" as="geometry">
            <mxRectangle width="30" height="30" as="alternateBounds" />
          </mxGeometry>
        </mxCell>
        <mxCell id="8UmoSVPX2Ag410WzAP6h-247" value="id: INT" style="shape=partialRectangle;connectable=0;fillColor=none;top=0;left=0;bottom=0;right=0;align=left;spacingLeft=6;fontStyle=5;overflow=hidden;whiteSpace=wrap;html=1;" parent="8UmoSVPX2Ag410WzAP6h-245" vertex="1">
          <mxGeometry x="30" width="208.73913043478274" height="30" as="geometry">
            <mxRectangle width="208.73913043478274" height="30" as="alternateBounds" />
          </mxGeometry>
        </mxCell>
        <mxCell id="8UmoSVPX2Ag410WzAP6h-248" value="" style="shape=tableRow;horizontal=0;startSize=0;swimlaneHead=0;swimlaneBody=0;fillColor=none;collapsible=0;dropTarget=0;points=[[0,0.5],[1,0.5]];portConstraint=eastwest;top=0;left=0;right=0;bottom=0;" parent="8UmoSVPX2Ag410WzAP6h-244" vertex="1">
          <mxGeometry y="60" width="238.73913043478274" height="30" as="geometry" />
        </mxCell>
        <mxCell id="8UmoSVPX2Ag410WzAP6h-249" value="" style="shape=partialRectangle;connectable=0;fillColor=none;top=0;left=0;bottom=0;right=0;editable=1;overflow=hidden;whiteSpace=wrap;html=1;" parent="8UmoSVPX2Ag410WzAP6h-248" vertex="1">
          <mxGeometry width="30" height="30" as="geometry">
            <mxRectangle width="30" height="30" as="alternateBounds" />
          </mxGeometry>
        </mxCell>
        <mxCell id="8UmoSVPX2Ag410WzAP6h-250" value="nome: VARCHAR(100), NOT NULL" style="shape=partialRectangle;connectable=0;fillColor=none;top=0;left=0;bottom=0;right=0;align=left;spacingLeft=6;overflow=hidden;whiteSpace=wrap;html=1;" parent="8UmoSVPX2Ag410WzAP6h-248" vertex="1">
          <mxGeometry x="30" width="208.73913043478274" height="30" as="geometry">
            <mxRectangle width="208.73913043478274" height="30" as="alternateBounds" />
          </mxGeometry>
        </mxCell>
        <mxCell id="8UmoSVPX2Ag410WzAP6h-251" value="" style="shape=tableRow;horizontal=0;startSize=0;swimlaneHead=0;swimlaneBody=0;fillColor=none;collapsible=0;dropTarget=0;points=[[0,0.5],[1,0.5]];portConstraint=eastwest;top=0;left=0;right=0;bottom=0;" parent="8UmoSVPX2Ag410WzAP6h-244" vertex="1">
          <mxGeometry y="90" width="238.73913043478274" height="30" as="geometry" />
        </mxCell>
        <mxCell id="8UmoSVPX2Ag410WzAP6h-252" value="" style="shape=partialRectangle;connectable=0;fillColor=none;top=0;left=0;bottom=0;right=0;editable=1;overflow=hidden;whiteSpace=wrap;html=1;" parent="8UmoSVPX2Ag410WzAP6h-251" vertex="1">
          <mxGeometry width="30" height="30" as="geometry">
            <mxRectangle width="30" height="30" as="alternateBounds" />
          </mxGeometry>
        </mxCell>
        <mxCell id="8UmoSVPX2Ag410WzAP6h-253" value="site: VARCHAR(255)" style="shape=partialRectangle;connectable=0;fillColor=none;top=0;left=0;bottom=0;right=0;align=left;spacingLeft=6;overflow=hidden;whiteSpace=wrap;html=1;" parent="8UmoSVPX2Ag410WzAP6h-251" vertex="1">
          <mxGeometry x="30" width="208.73913043478274" height="30" as="geometry">
            <mxRectangle width="208.73913043478274" height="30" as="alternateBounds" />
          </mxGeometry>
        </mxCell>
        <mxCell id="8UmoSVPX2Ag410WzAP6h-254" value="" style="shape=tableRow;horizontal=0;startSize=0;swimlaneHead=0;swimlaneBody=0;fillColor=none;collapsible=0;dropTarget=0;points=[[0,0.5],[1,0.5]];portConstraint=eastwest;top=0;left=0;right=0;bottom=0;" parent="8UmoSVPX2Ag410WzAP6h-244" vertex="1">
          <mxGeometry y="120" width="238.73913043478274" height="30" as="geometry" />
        </mxCell>
        <mxCell id="8UmoSVPX2Ag410WzAP6h-255" value="" style="shape=partialRectangle;connectable=0;fillColor=none;top=0;left=0;bottom=0;right=0;editable=1;overflow=hidden;whiteSpace=wrap;html=1;" parent="8UmoSVPX2Ag410WzAP6h-254" vertex="1">
          <mxGeometry width="30" height="30" as="geometry">
            <mxRectangle width="30" height="30" as="alternateBounds" />
          </mxGeometry>
        </mxCell>
        <mxCell id="8UmoSVPX2Ag410WzAP6h-256" value="pais_origem: VARCHAR(50)" style="shape=partialRectangle;connectable=0;fillColor=none;top=0;left=0;bottom=0;right=0;align=left;spacingLeft=6;overflow=hidden;whiteSpace=wrap;html=1;" parent="8UmoSVPX2Ag410WzAP6h-254" vertex="1">
          <mxGeometry x="30" width="208.73913043478274" height="30" as="geometry">
            <mxRectangle width="208.73913043478274" height="30" as="alternateBounds" />
          </mxGeometry>
        </mxCell>
        <mxCell id="8UmoSVPX2Ag410WzAP6h-270" value="tbl_producao" style="shape=table;startSize=30;container=1;collapsible=1;childLayout=tableLayout;fixedRows=1;rowLines=0;fontStyle=1;align=center;resizeLast=1;html=1;" parent="1" vertex="1">
          <mxGeometry x="2812.17" y="740" width="229.39130434782612" height="180" as="geometry" />
        </mxCell>
        <mxCell id="8UmoSVPX2Ag410WzAP6h-271" value="" style="shape=tableRow;horizontal=0;startSize=0;swimlaneHead=0;swimlaneBody=0;fillColor=none;collapsible=0;dropTarget=0;points=[[0,0.5],[1,0.5]];portConstraint=eastwest;top=0;left=0;right=0;bottom=1;" parent="8UmoSVPX2Ag410WzAP6h-270" vertex="1">
          <mxGeometry y="30" width="229.39130434782612" height="30" as="geometry" />
        </mxCell>
        <mxCell id="8UmoSVPX2Ag410WzAP6h-272" value="PK" style="shape=partialRectangle;connectable=0;fillColor=none;top=0;left=0;bottom=0;right=0;fontStyle=1;overflow=hidden;whiteSpace=wrap;html=1;" parent="8UmoSVPX2Ag410WzAP6h-271" vertex="1">
          <mxGeometry width="30" height="30" as="geometry">
            <mxRectangle width="30" height="30" as="alternateBounds" />
          </mxGeometry>
        </mxCell>
        <mxCell id="8UmoSVPX2Ag410WzAP6h-273" value="id: INT" style="shape=partialRectangle;connectable=0;fillColor=none;top=0;left=0;bottom=0;right=0;align=left;spacingLeft=6;fontStyle=5;overflow=hidden;whiteSpace=wrap;html=1;" parent="8UmoSVPX2Ag410WzAP6h-271" vertex="1">
          <mxGeometry x="30" width="199.39130434782612" height="30" as="geometry">
            <mxRectangle width="199.39130434782612" height="30" as="alternateBounds" />
          </mxGeometry>
        </mxCell>
        <mxCell id="8UmoSVPX2Ag410WzAP6h-274" value="" style="shape=tableRow;horizontal=0;startSize=0;swimlaneHead=0;swimlaneBody=0;fillColor=none;collapsible=0;dropTarget=0;points=[[0,0.5],[1,0.5]];portConstraint=eastwest;top=0;left=0;right=0;bottom=0;" parent="8UmoSVPX2Ag410WzAP6h-270" vertex="1">
          <mxGeometry y="60" width="229.39130434782612" height="30" as="geometry" />
        </mxCell>
        <mxCell id="8UmoSVPX2Ag410WzAP6h-275" value="" style="shape=partialRectangle;connectable=0;fillColor=none;top=0;left=0;bottom=0;right=0;editable=1;overflow=hidden;whiteSpace=wrap;html=1;" parent="8UmoSVPX2Ag410WzAP6h-274" vertex="1">
          <mxGeometry width="30" height="30" as="geometry">
            <mxRectangle width="30" height="30" as="alternateBounds" />
          </mxGeometry>
        </mxCell>
        <mxCell id="8UmoSVPX2Ag410WzAP6h-276" value="nome: VARCHAR(100), NOT NULL" style="shape=partialRectangle;connectable=0;fillColor=none;top=0;left=0;bottom=0;right=0;align=left;spacingLeft=6;overflow=hidden;whiteSpace=wrap;html=1;" parent="8UmoSVPX2Ag410WzAP6h-274" vertex="1">
          <mxGeometry x="30" width="199.39130434782612" height="30" as="geometry">
            <mxRectangle width="199.39130434782612" height="30" as="alternateBounds" />
          </mxGeometry>
        </mxCell>
        <mxCell id="8UmoSVPX2Ag410WzAP6h-277" value="" style="shape=tableRow;horizontal=0;startSize=0;swimlaneHead=0;swimlaneBody=0;fillColor=none;collapsible=0;dropTarget=0;points=[[0,0.5],[1,0.5]];portConstraint=eastwest;top=0;left=0;right=0;bottom=0;" parent="8UmoSVPX2Ag410WzAP6h-270" vertex="1">
          <mxGeometry y="90" width="229.39130434782612" height="30" as="geometry" />
        </mxCell>
        <mxCell id="8UmoSVPX2Ag410WzAP6h-278" value="" style="shape=partialRectangle;connectable=0;fillColor=none;top=0;left=0;bottom=0;right=0;editable=1;overflow=hidden;whiteSpace=wrap;html=1;" parent="8UmoSVPX2Ag410WzAP6h-277" vertex="1">
          <mxGeometry width="30" height="30" as="geometry">
            <mxRectangle width="30" height="30" as="alternateBounds" />
          </mxGeometry>
        </mxCell>
        <mxCell id="8UmoSVPX2Ag410WzAP6h-279" value="pais_origem: VARCHAR(50)" style="shape=partialRectangle;connectable=0;fillColor=none;top=0;left=0;bottom=0;right=0;align=left;spacingLeft=6;overflow=hidden;whiteSpace=wrap;html=1;" parent="8UmoSVPX2Ag410WzAP6h-277" vertex="1">
          <mxGeometry x="30" width="199.39130434782612" height="30" as="geometry">
            <mxRectangle width="199.39130434782612" height="30" as="alternateBounds" />
          </mxGeometry>
        </mxCell>
        <mxCell id="8UmoSVPX2Ag410WzAP6h-280" value="" style="shape=tableRow;horizontal=0;startSize=0;swimlaneHead=0;swimlaneBody=0;fillColor=none;collapsible=0;dropTarget=0;points=[[0,0.5],[1,0.5]];portConstraint=eastwest;top=0;left=0;right=0;bottom=0;" parent="8UmoSVPX2Ag410WzAP6h-270" vertex="1">
          <mxGeometry y="120" width="229.39130434782612" height="30" as="geometry" />
        </mxCell>
        <mxCell id="8UmoSVPX2Ag410WzAP6h-281" value="" style="shape=partialRectangle;connectable=0;fillColor=none;top=0;left=0;bottom=0;right=0;editable=1;overflow=hidden;whiteSpace=wrap;html=1;" parent="8UmoSVPX2Ag410WzAP6h-280" vertex="1">
          <mxGeometry width="30" height="30" as="geometry">
            <mxRectangle width="30" height="30" as="alternateBounds" />
          </mxGeometry>
        </mxCell>
        <mxCell id="8UmoSVPX2Ag410WzAP6h-282" value="fundacao: DATE" style="shape=partialRectangle;connectable=0;fillColor=none;top=0;left=0;bottom=0;right=0;align=left;spacingLeft=6;overflow=hidden;whiteSpace=wrap;html=1;" parent="8UmoSVPX2Ag410WzAP6h-280" vertex="1">
          <mxGeometry x="30" width="199.39130434782612" height="30" as="geometry">
            <mxRectangle width="199.39130434782612" height="30" as="alternateBounds" />
          </mxGeometry>
        </mxCell>
        <mxCell id="8UmoSVPX2Ag410WzAP6h-283" value="" style="shape=tableRow;horizontal=0;startSize=0;swimlaneHead=0;swimlaneBody=0;fillColor=none;collapsible=0;dropTarget=0;points=[[0,0.5],[1,0.5]];portConstraint=eastwest;top=0;left=0;right=0;bottom=0;" parent="8UmoSVPX2Ag410WzAP6h-270" vertex="1">
          <mxGeometry y="150" width="229.39130434782612" height="30" as="geometry" />
        </mxCell>
        <mxCell id="8UmoSVPX2Ag410WzAP6h-284" value="" style="shape=partialRectangle;connectable=0;fillColor=none;top=0;left=0;bottom=0;right=0;editable=1;overflow=hidden;" parent="8UmoSVPX2Ag410WzAP6h-283" vertex="1">
          <mxGeometry width="30" height="30" as="geometry">
            <mxRectangle width="30" height="30" as="alternateBounds" />
          </mxGeometry>
        </mxCell>
        <mxCell id="8UmoSVPX2Ag410WzAP6h-285" value="site: VARCHAR(255)" style="shape=partialRectangle;connectable=0;fillColor=none;top=0;left=0;bottom=0;right=0;align=left;spacingLeft=6;overflow=hidden;" parent="8UmoSVPX2Ag410WzAP6h-283" vertex="1">
          <mxGeometry x="30" width="199.39130434782612" height="30" as="geometry">
            <mxRectangle width="199.39130434782612" height="30" as="alternateBounds" />
          </mxGeometry>
        </mxCell>
        <mxCell id="8UmoSVPX2Ag410WzAP6h-307" value="tbl_profissional" style="shape=table;startSize=30;container=1;collapsible=1;childLayout=tableLayout;fixedRows=1;rowLines=0;fontStyle=1;align=center;resizeLast=1;html=1;" parent="1" vertex="1">
          <mxGeometry x="2192" y="742" width="284.3913043478261" height="180" as="geometry" />
        </mxCell>
        <mxCell id="8UmoSVPX2Ag410WzAP6h-308" value="" style="shape=tableRow;horizontal=0;startSize=0;swimlaneHead=0;swimlaneBody=0;fillColor=none;collapsible=0;dropTarget=0;points=[[0,0.5],[1,0.5]];portConstraint=eastwest;top=0;left=0;right=0;bottom=1;" parent="8UmoSVPX2Ag410WzAP6h-307" vertex="1">
          <mxGeometry y="30" width="284.3913043478261" height="30" as="geometry" />
        </mxCell>
        <mxCell id="8UmoSVPX2Ag410WzAP6h-309" value="PK" style="shape=partialRectangle;connectable=0;fillColor=none;top=0;left=0;bottom=0;right=0;fontStyle=1;overflow=hidden;whiteSpace=wrap;html=1;" parent="8UmoSVPX2Ag410WzAP6h-308" vertex="1">
          <mxGeometry width="30" height="30" as="geometry">
            <mxRectangle width="30" height="30" as="alternateBounds" />
          </mxGeometry>
        </mxCell>
        <mxCell id="8UmoSVPX2Ag410WzAP6h-310" value="id: INT" style="shape=partialRectangle;connectable=0;fillColor=none;top=0;left=0;bottom=0;right=0;align=left;spacingLeft=6;fontStyle=5;overflow=hidden;whiteSpace=wrap;html=1;" parent="8UmoSVPX2Ag410WzAP6h-308" vertex="1">
          <mxGeometry x="30" width="254.39130434782612" height="30" as="geometry">
            <mxRectangle width="254.39130434782612" height="30" as="alternateBounds" />
          </mxGeometry>
        </mxCell>
        <mxCell id="8UmoSVPX2Ag410WzAP6h-311" value="" style="shape=tableRow;horizontal=0;startSize=0;swimlaneHead=0;swimlaneBody=0;fillColor=none;collapsible=0;dropTarget=0;points=[[0,0.5],[1,0.5]];portConstraint=eastwest;top=0;left=0;right=0;bottom=0;" parent="8UmoSVPX2Ag410WzAP6h-307" vertex="1">
          <mxGeometry y="60" width="284.3913043478261" height="30" as="geometry" />
        </mxCell>
        <mxCell id="8UmoSVPX2Ag410WzAP6h-312" value="" style="shape=partialRectangle;connectable=0;fillColor=none;top=0;left=0;bottom=0;right=0;editable=1;overflow=hidden;whiteSpace=wrap;html=1;" parent="8UmoSVPX2Ag410WzAP6h-311" vertex="1">
          <mxGeometry width="30" height="30" as="geometry">
            <mxRectangle width="30" height="30" as="alternateBounds" />
          </mxGeometry>
        </mxCell>
        <mxCell id="8UmoSVPX2Ag410WzAP6h-313" value="nome: VARCHAR(100), NOT NULL" style="shape=partialRectangle;connectable=0;fillColor=none;top=0;left=0;bottom=0;right=0;align=left;spacingLeft=6;overflow=hidden;whiteSpace=wrap;html=1;" parent="8UmoSVPX2Ag410WzAP6h-311" vertex="1">
          <mxGeometry x="30" width="254.39130434782612" height="30" as="geometry">
            <mxRectangle width="254.39130434782612" height="30" as="alternateBounds" />
          </mxGeometry>
        </mxCell>
        <mxCell id="8UmoSVPX2Ag410WzAP6h-314" value="" style="shape=tableRow;horizontal=0;startSize=0;swimlaneHead=0;swimlaneBody=0;fillColor=none;collapsible=0;dropTarget=0;points=[[0,0.5],[1,0.5]];portConstraint=eastwest;top=0;left=0;right=0;bottom=0;" parent="8UmoSVPX2Ag410WzAP6h-307" vertex="1">
          <mxGeometry y="90" width="284.3913043478261" height="30" as="geometry" />
        </mxCell>
        <mxCell id="8UmoSVPX2Ag410WzAP6h-315" value="" style="shape=partialRectangle;connectable=0;fillColor=none;top=0;left=0;bottom=0;right=0;editable=1;overflow=hidden;whiteSpace=wrap;html=1;" parent="8UmoSVPX2Ag410WzAP6h-314" vertex="1">
          <mxGeometry width="30" height="30" as="geometry">
            <mxRectangle width="30" height="30" as="alternateBounds" />
          </mxGeometry>
        </mxCell>
        <mxCell id="8UmoSVPX2Ag410WzAP6h-316" value="data_nascimento: DATE" style="shape=partialRectangle;connectable=0;fillColor=none;top=0;left=0;bottom=0;right=0;align=left;spacingLeft=6;overflow=hidden;whiteSpace=wrap;html=1;" parent="8UmoSVPX2Ag410WzAP6h-314" vertex="1">
          <mxGeometry x="30" width="254.39130434782612" height="30" as="geometry">
            <mxRectangle width="254.39130434782612" height="30" as="alternateBounds" />
          </mxGeometry>
        </mxCell>
        <mxCell id="8UmoSVPX2Ag410WzAP6h-317" value="" style="shape=tableRow;horizontal=0;startSize=0;swimlaneHead=0;swimlaneBody=0;fillColor=none;collapsible=0;dropTarget=0;points=[[0,0.5],[1,0.5]];portConstraint=eastwest;top=0;left=0;right=0;bottom=0;" parent="8UmoSVPX2Ag410WzAP6h-307" vertex="1">
          <mxGeometry y="120" width="284.3913043478261" height="30" as="geometry" />
        </mxCell>
        <mxCell id="8UmoSVPX2Ag410WzAP6h-318" value="" style="shape=partialRectangle;connectable=0;fillColor=none;top=0;left=0;bottom=0;right=0;editable=1;overflow=hidden;whiteSpace=wrap;html=1;" parent="8UmoSVPX2Ag410WzAP6h-317" vertex="1">
          <mxGeometry width="30" height="30" as="geometry">
            <mxRectangle width="30" height="30" as="alternateBounds" />
          </mxGeometry>
        </mxCell>
        <mxCell id="8UmoSVPX2Ag410WzAP6h-319" value="nacionalidade: VARCHAR(50), NOT NULL" style="shape=partialRectangle;connectable=0;fillColor=none;top=0;left=0;bottom=0;right=0;align=left;spacingLeft=6;overflow=hidden;whiteSpace=wrap;html=1;" parent="8UmoSVPX2Ag410WzAP6h-317" vertex="1">
          <mxGeometry x="30" width="254.39130434782612" height="30" as="geometry">
            <mxRectangle width="254.39130434782612" height="30" as="alternateBounds" />
          </mxGeometry>
        </mxCell>
        <mxCell id="8UmoSVPX2Ag410WzAP6h-320" value="" style="shape=tableRow;horizontal=0;startSize=0;swimlaneHead=0;swimlaneBody=0;fillColor=none;collapsible=0;dropTarget=0;points=[[0,0.5],[1,0.5]];portConstraint=eastwest;top=0;left=0;right=0;bottom=0;" parent="8UmoSVPX2Ag410WzAP6h-307" vertex="1">
          <mxGeometry y="150" width="284.3913043478261" height="30" as="geometry" />
        </mxCell>
        <mxCell id="8UmoSVPX2Ag410WzAP6h-321" value="" style="shape=partialRectangle;connectable=0;fillColor=none;top=0;left=0;bottom=0;right=0;editable=1;overflow=hidden;" parent="8UmoSVPX2Ag410WzAP6h-320" vertex="1">
          <mxGeometry width="30" height="30" as="geometry">
            <mxRectangle width="30" height="30" as="alternateBounds" />
          </mxGeometry>
        </mxCell>
        <mxCell id="8UmoSVPX2Ag410WzAP6h-322" value="biografia: TEXT" style="shape=partialRectangle;connectable=0;fillColor=none;top=0;left=0;bottom=0;right=0;align=left;spacingLeft=6;overflow=hidden;" parent="8UmoSVPX2Ag410WzAP6h-320" vertex="1">
          <mxGeometry x="30" width="254.39130434782612" height="30" as="geometry">
            <mxRectangle width="254.39130434782612" height="30" as="alternateBounds" />
          </mxGeometry>
        </mxCell>
        <mxCell id="8UmoSVPX2Ag410WzAP6h-336" value="tbl_cargo" style="shape=table;startSize=30;container=1;collapsible=1;childLayout=tableLayout;fixedRows=1;rowLines=0;fontStyle=1;align=center;resizeLast=1;html=1;" parent="1" vertex="1">
          <mxGeometry x="1916.46" y="909" width="231.75" height="120" as="geometry" />
        </mxCell>
        <mxCell id="8UmoSVPX2Ag410WzAP6h-337" value="" style="shape=tableRow;horizontal=0;startSize=0;swimlaneHead=0;swimlaneBody=0;fillColor=none;collapsible=0;dropTarget=0;points=[[0,0.5],[1,0.5]];portConstraint=eastwest;top=0;left=0;right=0;bottom=1;" parent="8UmoSVPX2Ag410WzAP6h-336" vertex="1">
          <mxGeometry y="30" width="231.75" height="30" as="geometry" />
        </mxCell>
        <mxCell id="8UmoSVPX2Ag410WzAP6h-338" value="PK" style="shape=partialRectangle;connectable=0;fillColor=none;top=0;left=0;bottom=0;right=0;fontStyle=1;overflow=hidden;whiteSpace=wrap;html=1;" parent="8UmoSVPX2Ag410WzAP6h-337" vertex="1">
          <mxGeometry width="30" height="30" as="geometry">
            <mxRectangle width="30" height="30" as="alternateBounds" />
          </mxGeometry>
        </mxCell>
        <mxCell id="8UmoSVPX2Ag410WzAP6h-339" value="id: INT" style="shape=partialRectangle;connectable=0;fillColor=none;top=0;left=0;bottom=0;right=0;align=left;spacingLeft=6;fontStyle=5;overflow=hidden;whiteSpace=wrap;html=1;" parent="8UmoSVPX2Ag410WzAP6h-337" vertex="1">
          <mxGeometry x="30" width="201.75" height="30" as="geometry">
            <mxRectangle width="201.75" height="30" as="alternateBounds" />
          </mxGeometry>
        </mxCell>
        <mxCell id="8UmoSVPX2Ag410WzAP6h-340" value="" style="shape=tableRow;horizontal=0;startSize=0;swimlaneHead=0;swimlaneBody=0;fillColor=none;collapsible=0;dropTarget=0;points=[[0,0.5],[1,0.5]];portConstraint=eastwest;top=0;left=0;right=0;bottom=0;" parent="8UmoSVPX2Ag410WzAP6h-336" vertex="1">
          <mxGeometry y="60" width="231.75" height="30" as="geometry" />
        </mxCell>
        <mxCell id="8UmoSVPX2Ag410WzAP6h-341" value="" style="shape=partialRectangle;connectable=0;fillColor=none;top=0;left=0;bottom=0;right=0;editable=1;overflow=hidden;whiteSpace=wrap;html=1;" parent="8UmoSVPX2Ag410WzAP6h-340" vertex="1">
          <mxGeometry width="30" height="30" as="geometry">
            <mxRectangle width="30" height="30" as="alternateBounds" />
          </mxGeometry>
        </mxCell>
        <mxCell id="8UmoSVPX2Ag410WzAP6h-342" value="nome: VARCHAR(50), NOT NULL" style="shape=partialRectangle;connectable=0;fillColor=none;top=0;left=0;bottom=0;right=0;align=left;spacingLeft=6;overflow=hidden;whiteSpace=wrap;html=1;" parent="8UmoSVPX2Ag410WzAP6h-340" vertex="1">
          <mxGeometry x="30" width="201.75" height="30" as="geometry">
            <mxRectangle width="201.75" height="30" as="alternateBounds" />
          </mxGeometry>
        </mxCell>
        <mxCell id="8UmoSVPX2Ag410WzAP6h-343" value="" style="shape=tableRow;horizontal=0;startSize=0;swimlaneHead=0;swimlaneBody=0;fillColor=none;collapsible=0;dropTarget=0;points=[[0,0.5],[1,0.5]];portConstraint=eastwest;top=0;left=0;right=0;bottom=0;" parent="8UmoSVPX2Ag410WzAP6h-336" vertex="1">
          <mxGeometry y="90" width="231.75" height="30" as="geometry" />
        </mxCell>
        <mxCell id="8UmoSVPX2Ag410WzAP6h-344" value="" style="shape=partialRectangle;connectable=0;fillColor=none;top=0;left=0;bottom=0;right=0;editable=1;overflow=hidden;whiteSpace=wrap;html=1;" parent="8UmoSVPX2Ag410WzAP6h-343" vertex="1">
          <mxGeometry width="30" height="30" as="geometry">
            <mxRectangle width="30" height="30" as="alternateBounds" />
          </mxGeometry>
        </mxCell>
        <mxCell id="8UmoSVPX2Ag410WzAP6h-345" value="descricao: TEXT" style="shape=partialRectangle;connectable=0;fillColor=none;top=0;left=0;bottom=0;right=0;align=left;spacingLeft=6;overflow=hidden;whiteSpace=wrap;html=1;" parent="8UmoSVPX2Ag410WzAP6h-343" vertex="1">
          <mxGeometry x="30" width="201.75" height="30" as="geometry">
            <mxRectangle width="201.75" height="30" as="alternateBounds" />
          </mxGeometry>
        </mxCell>
        <mxCell id="8UmoSVPX2Ag410WzAP6h-346" value="tbl_filme_personagem" style="shape=table;startSize=30;container=1;collapsible=1;childLayout=tableLayout;fixedRows=1;rowLines=0;fontStyle=1;align=center;resizeLast=1;html=1;" parent="1" vertex="1">
          <mxGeometry x="2817" y="511" width="219.739204738451" height="120" as="geometry" />
        </mxCell>
        <mxCell id="8UmoSVPX2Ag410WzAP6h-347" value="" style="shape=tableRow;horizontal=0;startSize=0;swimlaneHead=0;swimlaneBody=0;fillColor=none;collapsible=0;dropTarget=0;points=[[0,0.5],[1,0.5]];portConstraint=eastwest;top=0;left=0;right=0;bottom=1;" parent="8UmoSVPX2Ag410WzAP6h-346" vertex="1">
          <mxGeometry y="30" width="219.739204738451" height="30" as="geometry" />
        </mxCell>
        <mxCell id="8UmoSVPX2Ag410WzAP6h-348" value="PK" style="shape=partialRectangle;connectable=0;fillColor=none;top=0;left=0;bottom=0;right=0;fontStyle=1;overflow=hidden;whiteSpace=wrap;html=1;" parent="8UmoSVPX2Ag410WzAP6h-347" vertex="1">
          <mxGeometry width="30" height="30" as="geometry">
            <mxRectangle width="30" height="30" as="alternateBounds" />
          </mxGeometry>
        </mxCell>
        <mxCell id="8UmoSVPX2Ag410WzAP6h-349" value="id: INT" style="shape=partialRectangle;connectable=0;fillColor=none;top=0;left=0;bottom=0;right=0;align=left;spacingLeft=6;fontStyle=5;overflow=hidden;whiteSpace=wrap;html=1;" parent="8UmoSVPX2Ag410WzAP6h-347" vertex="1">
          <mxGeometry x="30" width="189.739204738451" height="30" as="geometry">
            <mxRectangle width="189.739204738451" height="30" as="alternateBounds" />
          </mxGeometry>
        </mxCell>
        <mxCell id="8UmoSVPX2Ag410WzAP6h-364" value="" style="shape=tableRow;horizontal=0;startSize=0;swimlaneHead=0;swimlaneBody=0;fillColor=none;collapsible=0;dropTarget=0;points=[[0,0.5],[1,0.5]];portConstraint=eastwest;top=0;left=0;right=0;bottom=0;" parent="8UmoSVPX2Ag410WzAP6h-346" vertex="1">
          <mxGeometry y="60" width="219.739204738451" height="30" as="geometry" />
        </mxCell>
        <mxCell id="8UmoSVPX2Ag410WzAP6h-365" value="FK" style="shape=partialRectangle;connectable=0;fillColor=none;top=0;left=0;bottom=0;right=0;fontStyle=0;overflow=hidden;whiteSpace=wrap;html=1;" parent="8UmoSVPX2Ag410WzAP6h-364" vertex="1">
          <mxGeometry width="30" height="30" as="geometry">
            <mxRectangle width="30" height="30" as="alternateBounds" />
          </mxGeometry>
        </mxCell>
        <mxCell id="8UmoSVPX2Ag410WzAP6h-366" value="id_filme: INT, NOT NULL" style="shape=partialRectangle;connectable=0;fillColor=none;top=0;left=0;bottom=0;right=0;align=left;spacingLeft=6;fontStyle=0;overflow=hidden;whiteSpace=wrap;html=1;" parent="8UmoSVPX2Ag410WzAP6h-364" vertex="1">
          <mxGeometry x="30" width="189.739204738451" height="30" as="geometry">
            <mxRectangle width="189.739204738451" height="30" as="alternateBounds" />
          </mxGeometry>
        </mxCell>
        <mxCell id="8UmoSVPX2Ag410WzAP6h-368" value="" style="shape=tableRow;horizontal=0;startSize=0;swimlaneHead=0;swimlaneBody=0;fillColor=none;collapsible=0;dropTarget=0;points=[[0,0.5],[1,0.5]];portConstraint=eastwest;top=0;left=0;right=0;bottom=0;" parent="8UmoSVPX2Ag410WzAP6h-346" vertex="1">
          <mxGeometry y="90" width="219.739204738451" height="30" as="geometry" />
        </mxCell>
        <mxCell id="8UmoSVPX2Ag410WzAP6h-369" value="FK" style="shape=partialRectangle;connectable=0;fillColor=none;top=0;left=0;bottom=0;right=0;fontStyle=0;overflow=hidden;whiteSpace=wrap;html=1;" parent="8UmoSVPX2Ag410WzAP6h-368" vertex="1">
          <mxGeometry width="30" height="30" as="geometry">
            <mxRectangle width="30" height="30" as="alternateBounds" />
          </mxGeometry>
        </mxCell>
        <mxCell id="8UmoSVPX2Ag410WzAP6h-370" value="id_personagem: INT, NOT NULL" style="shape=partialRectangle;connectable=0;fillColor=none;top=0;left=0;bottom=0;right=0;align=left;spacingLeft=6;fontStyle=0;overflow=hidden;whiteSpace=wrap;html=1;" parent="8UmoSVPX2Ag410WzAP6h-368" vertex="1">
          <mxGeometry x="30" width="189.739204738451" height="30" as="geometry">
            <mxRectangle width="189.739204738451" height="30" as="alternateBounds" />
          </mxGeometry>
        </mxCell>
        <mxCell id="8UmoSVPX2Ag410WzAP6h-371" value="" style="edgeStyle=entityRelationEdgeStyle;fontSize=12;html=1;endArrow=ERoneToMany;endFill=0;rounded=0;startArrow=ERone;startFill=0;" parent="1" source="8UmoSVPX2Ag410WzAP6h-151" target="8UmoSVPX2Ag410WzAP6h-368" edge="1">
          <mxGeometry width="100" height="100" relative="1" as="geometry">
            <mxPoint x="2720" y="791" as="sourcePoint" />
            <mxPoint x="2820" y="691" as="targetPoint" />
          </mxGeometry>
        </mxCell>
        <mxCell id="8UmoSVPX2Ag410WzAP6h-372" value="" style="edgeStyle=entityRelationEdgeStyle;fontSize=12;html=1;endArrow=ERone;endFill=0;rounded=0;startArrow=ERoneToMany;startFill=0;" parent="1" source="8UmoSVPX2Ag410WzAP6h-364" target="8UmoSVPX2Ag410WzAP6h-92" edge="1">
          <mxGeometry width="100" height="100" relative="1" as="geometry">
            <mxPoint x="2728" y="717" as="sourcePoint" />
            <mxPoint x="2878" y="834" as="targetPoint" />
          </mxGeometry>
        </mxCell>
        <mxCell id="8UmoSVPX2Ag410WzAP6h-373" value="tbl_producao_profissional" style="shape=table;startSize=30;container=1;collapsible=1;childLayout=tableLayout;fixedRows=1;rowLines=0;fontStyle=1;align=center;resizeLast=1;html=1;" parent="1" vertex="1">
          <mxGeometry x="2540" y="764" width="209.47494506835938" height="120" as="geometry" />
        </mxCell>
        <mxCell id="8UmoSVPX2Ag410WzAP6h-374" value="" style="shape=tableRow;horizontal=0;startSize=0;swimlaneHead=0;swimlaneBody=0;fillColor=none;collapsible=0;dropTarget=0;points=[[0,0.5],[1,0.5]];portConstraint=eastwest;top=0;left=0;right=0;bottom=1;" parent="8UmoSVPX2Ag410WzAP6h-373" vertex="1">
          <mxGeometry y="30" width="209.47494506835938" height="30" as="geometry" />
        </mxCell>
        <mxCell id="8UmoSVPX2Ag410WzAP6h-375" value="PK" style="shape=partialRectangle;connectable=0;fillColor=none;top=0;left=0;bottom=0;right=0;fontStyle=1;overflow=hidden;whiteSpace=wrap;html=1;" parent="8UmoSVPX2Ag410WzAP6h-374" vertex="1">
          <mxGeometry width="30" height="30" as="geometry">
            <mxRectangle width="30" height="30" as="alternateBounds" />
          </mxGeometry>
        </mxCell>
        <mxCell id="8UmoSVPX2Ag410WzAP6h-376" value="id: INT" style="shape=partialRectangle;connectable=0;fillColor=none;top=0;left=0;bottom=0;right=0;align=left;spacingLeft=6;fontStyle=5;overflow=hidden;whiteSpace=wrap;html=1;" parent="8UmoSVPX2Ag410WzAP6h-374" vertex="1">
          <mxGeometry x="30" width="179.47494506835938" height="30" as="geometry">
            <mxRectangle width="179.47494506835938" height="30" as="alternateBounds" />
          </mxGeometry>
        </mxCell>
        <mxCell id="8UmoSVPX2Ag410WzAP6h-377" value="" style="shape=tableRow;horizontal=0;startSize=0;swimlaneHead=0;swimlaneBody=0;fillColor=none;collapsible=0;dropTarget=0;points=[[0,0.5],[1,0.5]];portConstraint=eastwest;top=0;left=0;right=0;bottom=0;" parent="8UmoSVPX2Ag410WzAP6h-373" vertex="1">
          <mxGeometry y="60" width="209.47494506835938" height="30" as="geometry" />
        </mxCell>
        <mxCell id="8UmoSVPX2Ag410WzAP6h-378" value="FK" style="shape=partialRectangle;connectable=0;fillColor=none;top=0;left=0;bottom=0;right=0;fontStyle=0;overflow=hidden;whiteSpace=wrap;html=1;" parent="8UmoSVPX2Ag410WzAP6h-377" vertex="1">
          <mxGeometry width="30" height="30" as="geometry">
            <mxRectangle width="30" height="30" as="alternateBounds" />
          </mxGeometry>
        </mxCell>
        <mxCell id="8UmoSVPX2Ag410WzAP6h-379" value="id_producao: INT, NOT NULL" style="shape=partialRectangle;connectable=0;fillColor=none;top=0;left=0;bottom=0;right=0;align=left;spacingLeft=6;fontStyle=0;overflow=hidden;whiteSpace=wrap;html=1;" parent="8UmoSVPX2Ag410WzAP6h-377" vertex="1">
          <mxGeometry x="30" width="179.47494506835938" height="30" as="geometry">
            <mxRectangle width="179.47494506835938" height="30" as="alternateBounds" />
          </mxGeometry>
        </mxCell>
        <mxCell id="8UmoSVPX2Ag410WzAP6h-380" value="" style="shape=tableRow;horizontal=0;startSize=0;swimlaneHead=0;swimlaneBody=0;fillColor=none;collapsible=0;dropTarget=0;points=[[0,0.5],[1,0.5]];portConstraint=eastwest;top=0;left=0;right=0;bottom=0;" parent="8UmoSVPX2Ag410WzAP6h-373" vertex="1">
          <mxGeometry y="90" width="209.47494506835938" height="30" as="geometry" />
        </mxCell>
        <mxCell id="8UmoSVPX2Ag410WzAP6h-381" value="FK" style="shape=partialRectangle;connectable=0;fillColor=none;top=0;left=0;bottom=0;right=0;fontStyle=0;overflow=hidden;whiteSpace=wrap;html=1;" parent="8UmoSVPX2Ag410WzAP6h-380" vertex="1">
          <mxGeometry width="30" height="30" as="geometry">
            <mxRectangle width="30" height="30" as="alternateBounds" />
          </mxGeometry>
        </mxCell>
        <mxCell id="8UmoSVPX2Ag410WzAP6h-382" value="id_profissional: INT, NOT NULL" style="shape=partialRectangle;connectable=0;fillColor=none;top=0;left=0;bottom=0;right=0;align=left;spacingLeft=6;fontStyle=0;overflow=hidden;whiteSpace=wrap;html=1;" parent="8UmoSVPX2Ag410WzAP6h-380" vertex="1">
          <mxGeometry x="30" width="179.47494506835938" height="30" as="geometry">
            <mxRectangle width="179.47494506835938" height="30" as="alternateBounds" />
          </mxGeometry>
        </mxCell>
        <mxCell id="8UmoSVPX2Ag410WzAP6h-383" value="site" style="ellipse;whiteSpace=wrap;html=1;align=center;" parent="1" vertex="1">
          <mxGeometry x="835" y="909" width="100" height="40" as="geometry" />
        </mxCell>
        <mxCell id="8UmoSVPX2Ag410WzAP6h-384" value="" style="endArrow=none;html=1;rounded=0;" parent="1" source="8UmoSVPX2Ag410WzAP6h-383" target="8UmoSVPX2Ag410WzAP6h-26" edge="1">
          <mxGeometry relative="1" as="geometry">
            <mxPoint x="795" y="1106" as="sourcePoint" />
            <mxPoint x="805" y="1170" as="targetPoint" />
          </mxGeometry>
        </mxCell>
        <mxCell id="8UmoSVPX2Ag410WzAP6h-385" value="" style="edgeStyle=entityRelationEdgeStyle;fontSize=12;html=1;endArrow=ERoneToMany;endFill=0;rounded=0;startArrow=ERone;startFill=0;" parent="1" target="8UmoSVPX2Ag410WzAP6h-380" edge="1">
          <mxGeometry width="100" height="100" relative="1" as="geometry">
            <mxPoint x="2476.39" y="797" as="sourcePoint" />
            <mxPoint x="2551.39" y="881" as="targetPoint" />
          </mxGeometry>
        </mxCell>
        <mxCell id="8UmoSVPX2Ag410WzAP6h-386" value="" style="edgeStyle=entityRelationEdgeStyle;fontSize=12;html=1;endArrow=ERone;endFill=0;rounded=0;startArrow=ERoneToMany;startFill=0;" parent="1" source="8UmoSVPX2Ag410WzAP6h-377" target="8UmoSVPX2Ag410WzAP6h-271" edge="1">
          <mxGeometry width="100" height="100" relative="1" as="geometry">
            <mxPoint x="2703" y="1069" as="sourcePoint" />
            <mxPoint x="2803" y="969" as="targetPoint" />
          </mxGeometry>
        </mxCell>
        <mxCell id="8UmoSVPX2Ag410WzAP6h-387" value="tbl_profissional_cargo" style="shape=table;startSize=30;container=1;collapsible=1;childLayout=tableLayout;fixedRows=1;rowLines=0;fontStyle=1;align=center;resizeLast=1;html=1;" parent="1" vertex="1">
          <mxGeometry x="1934" y="762" width="214.2069554822201" height="120" as="geometry" />
        </mxCell>
        <mxCell id="8UmoSVPX2Ag410WzAP6h-388" value="" style="shape=tableRow;horizontal=0;startSize=0;swimlaneHead=0;swimlaneBody=0;fillColor=none;collapsible=0;dropTarget=0;points=[[0,0.5],[1,0.5]];portConstraint=eastwest;top=0;left=0;right=0;bottom=1;" parent="8UmoSVPX2Ag410WzAP6h-387" vertex="1">
          <mxGeometry y="30" width="214.2069554822201" height="30" as="geometry" />
        </mxCell>
        <mxCell id="8UmoSVPX2Ag410WzAP6h-389" value="PK" style="shape=partialRectangle;connectable=0;fillColor=none;top=0;left=0;bottom=0;right=0;fontStyle=1;overflow=hidden;whiteSpace=wrap;html=1;" parent="8UmoSVPX2Ag410WzAP6h-388" vertex="1">
          <mxGeometry width="30" height="30" as="geometry">
            <mxRectangle width="30" height="30" as="alternateBounds" />
          </mxGeometry>
        </mxCell>
        <mxCell id="8UmoSVPX2Ag410WzAP6h-390" value="id: INT" style="shape=partialRectangle;connectable=0;fillColor=none;top=0;left=0;bottom=0;right=0;align=left;spacingLeft=6;fontStyle=5;overflow=hidden;whiteSpace=wrap;html=1;" parent="8UmoSVPX2Ag410WzAP6h-388" vertex="1">
          <mxGeometry x="30" width="184.2069554822201" height="30" as="geometry">
            <mxRectangle width="184.2069554822201" height="30" as="alternateBounds" />
          </mxGeometry>
        </mxCell>
        <mxCell id="8UmoSVPX2Ag410WzAP6h-391" value="" style="shape=tableRow;horizontal=0;startSize=0;swimlaneHead=0;swimlaneBody=0;fillColor=none;collapsible=0;dropTarget=0;points=[[0,0.5],[1,0.5]];portConstraint=eastwest;top=0;left=0;right=0;bottom=0;" parent="8UmoSVPX2Ag410WzAP6h-387" vertex="1">
          <mxGeometry y="60" width="214.2069554822201" height="30" as="geometry" />
        </mxCell>
        <mxCell id="8UmoSVPX2Ag410WzAP6h-392" value="FK" style="shape=partialRectangle;connectable=0;fillColor=none;top=0;left=0;bottom=0;right=0;fontStyle=0;overflow=hidden;whiteSpace=wrap;html=1;" parent="8UmoSVPX2Ag410WzAP6h-391" vertex="1">
          <mxGeometry width="30" height="30" as="geometry">
            <mxRectangle width="30" height="30" as="alternateBounds" />
          </mxGeometry>
        </mxCell>
        <mxCell id="8UmoSVPX2Ag410WzAP6h-393" value="id_profissional: INT, NOT NULL" style="shape=partialRectangle;connectable=0;fillColor=none;top=0;left=0;bottom=0;right=0;align=left;spacingLeft=6;fontStyle=0;overflow=hidden;whiteSpace=wrap;html=1;" parent="8UmoSVPX2Ag410WzAP6h-391" vertex="1">
          <mxGeometry x="30" width="184.2069554822201" height="30" as="geometry">
            <mxRectangle width="184.2069554822201" height="30" as="alternateBounds" />
          </mxGeometry>
        </mxCell>
        <mxCell id="8UmoSVPX2Ag410WzAP6h-394" value="" style="shape=tableRow;horizontal=0;startSize=0;swimlaneHead=0;swimlaneBody=0;fillColor=none;collapsible=0;dropTarget=0;points=[[0,0.5],[1,0.5]];portConstraint=eastwest;top=0;left=0;right=0;bottom=0;" parent="8UmoSVPX2Ag410WzAP6h-387" vertex="1">
          <mxGeometry y="90" width="214.2069554822201" height="30" as="geometry" />
        </mxCell>
        <mxCell id="8UmoSVPX2Ag410WzAP6h-395" value="FK" style="shape=partialRectangle;connectable=0;fillColor=none;top=0;left=0;bottom=0;right=0;fontStyle=0;overflow=hidden;whiteSpace=wrap;html=1;" parent="8UmoSVPX2Ag410WzAP6h-394" vertex="1">
          <mxGeometry width="30" height="30" as="geometry">
            <mxRectangle width="30" height="30" as="alternateBounds" />
          </mxGeometry>
        </mxCell>
        <mxCell id="8UmoSVPX2Ag410WzAP6h-396" value="id_cargo: INT, NOT NULL" style="shape=partialRectangle;connectable=0;fillColor=none;top=0;left=0;bottom=0;right=0;align=left;spacingLeft=6;fontStyle=0;overflow=hidden;whiteSpace=wrap;html=1;" parent="8UmoSVPX2Ag410WzAP6h-394" vertex="1">
          <mxGeometry x="30" width="184.2069554822201" height="30" as="geometry">
            <mxRectangle width="184.2069554822201" height="30" as="alternateBounds" />
          </mxGeometry>
        </mxCell>
        <mxCell id="8UmoSVPX2Ag410WzAP6h-397" value="" style="edgeStyle=entityRelationEdgeStyle;fontSize=12;html=1;endArrow=ERzeroToMany;endFill=0;rounded=0;startArrow=ERone;startFill=0;" parent="1" source="8UmoSVPX2Ag410WzAP6h-337" target="8UmoSVPX2Ag410WzAP6h-394" edge="1">
          <mxGeometry width="100" height="100" relative="1" as="geometry">
            <mxPoint x="1899" y="972" as="sourcePoint" />
            <mxPoint x="1968" y="1049" as="targetPoint" />
          </mxGeometry>
        </mxCell>
        <mxCell id="8UmoSVPX2Ag410WzAP6h-398" value="" style="edgeStyle=entityRelationEdgeStyle;fontSize=12;html=1;endArrow=ERone;endFill=0;rounded=0;startArrow=ERoneToMany;startFill=0;" parent="1" source="8UmoSVPX2Ag410WzAP6h-391" target="8UmoSVPX2Ag410WzAP6h-308" edge="1">
          <mxGeometry width="100" height="100" relative="1" as="geometry">
            <mxPoint x="2107" y="926" as="sourcePoint" />
            <mxPoint x="2171" y="777" as="targetPoint" />
          </mxGeometry>
        </mxCell>
        <mxCell id="8UmoSVPX2Ag410WzAP6h-403" value="" style="edgeStyle=entityRelationEdgeStyle;fontSize=12;html=1;endArrow=ERoneToMany;endFill=0;rounded=0;startArrow=ERmandOne;startFill=0;" parent="1" source="8UmoSVPX2Ag410WzAP6h-271" target="8UmoSVPX2Ag410WzAP6h-400" edge="1">
          <mxGeometry width="100" height="100" relative="1" as="geometry">
            <mxPoint x="2963" y="830" as="sourcePoint" />
            <mxPoint x="3063" y="730" as="targetPoint" />
          </mxGeometry>
        </mxCell>
        <mxCell id="8UmoSVPX2Ag410WzAP6h-404" value="tbl_filme_genero" style="shape=table;startSize=30;container=1;collapsible=1;childLayout=tableLayout;fixedRows=1;rowLines=0;fontStyle=1;align=center;resizeLast=1;html=1;" parent="1" vertex="1">
          <mxGeometry x="3466" y="517" width="196.80769230769238" height="120" as="geometry" />
        </mxCell>
        <mxCell id="8UmoSVPX2Ag410WzAP6h-405" value="" style="shape=tableRow;horizontal=0;startSize=0;swimlaneHead=0;swimlaneBody=0;fillColor=none;collapsible=0;dropTarget=0;points=[[0,0.5],[1,0.5]];portConstraint=eastwest;top=0;left=0;right=0;bottom=1;" parent="8UmoSVPX2Ag410WzAP6h-404" vertex="1">
          <mxGeometry y="30" width="196.80769230769238" height="30" as="geometry" />
        </mxCell>
        <mxCell id="8UmoSVPX2Ag410WzAP6h-406" value="PK" style="shape=partialRectangle;connectable=0;fillColor=none;top=0;left=0;bottom=0;right=0;fontStyle=1;overflow=hidden;whiteSpace=wrap;html=1;" parent="8UmoSVPX2Ag410WzAP6h-405" vertex="1">
          <mxGeometry width="30" height="30" as="geometry">
            <mxRectangle width="30" height="30" as="alternateBounds" />
          </mxGeometry>
        </mxCell>
        <mxCell id="8UmoSVPX2Ag410WzAP6h-407" value="id: INT" style="shape=partialRectangle;connectable=0;fillColor=none;top=0;left=0;bottom=0;right=0;align=left;spacingLeft=6;fontStyle=5;overflow=hidden;whiteSpace=wrap;html=1;" parent="8UmoSVPX2Ag410WzAP6h-405" vertex="1">
          <mxGeometry x="30" width="166.80769230769238" height="30" as="geometry">
            <mxRectangle width="166.80769230769238" height="30" as="alternateBounds" />
          </mxGeometry>
        </mxCell>
        <mxCell id="8UmoSVPX2Ag410WzAP6h-408" value="" style="shape=tableRow;horizontal=0;startSize=0;swimlaneHead=0;swimlaneBody=0;fillColor=none;collapsible=0;dropTarget=0;points=[[0,0.5],[1,0.5]];portConstraint=eastwest;top=0;left=0;right=0;bottom=0;" parent="8UmoSVPX2Ag410WzAP6h-404" vertex="1">
          <mxGeometry y="60" width="196.80769230769238" height="30" as="geometry" />
        </mxCell>
        <mxCell id="8UmoSVPX2Ag410WzAP6h-409" value="FK" style="shape=partialRectangle;connectable=0;fillColor=none;top=0;left=0;bottom=0;right=0;fontStyle=0;overflow=hidden;whiteSpace=wrap;html=1;" parent="8UmoSVPX2Ag410WzAP6h-408" vertex="1">
          <mxGeometry width="30" height="30" as="geometry">
            <mxRectangle width="30" height="30" as="alternateBounds" />
          </mxGeometry>
        </mxCell>
        <mxCell id="8UmoSVPX2Ag410WzAP6h-410" value="id_filme: INT, NOT NULL" style="shape=partialRectangle;connectable=0;fillColor=none;top=0;left=0;bottom=0;right=0;align=left;spacingLeft=6;fontStyle=0;overflow=hidden;whiteSpace=wrap;html=1;" parent="8UmoSVPX2Ag410WzAP6h-408" vertex="1">
          <mxGeometry x="30" width="166.80769230769238" height="30" as="geometry">
            <mxRectangle width="166.80769230769238" height="30" as="alternateBounds" />
          </mxGeometry>
        </mxCell>
        <mxCell id="8UmoSVPX2Ag410WzAP6h-411" value="" style="shape=tableRow;horizontal=0;startSize=0;swimlaneHead=0;swimlaneBody=0;fillColor=none;collapsible=0;dropTarget=0;points=[[0,0.5],[1,0.5]];portConstraint=eastwest;top=0;left=0;right=0;bottom=0;" parent="8UmoSVPX2Ag410WzAP6h-404" vertex="1">
          <mxGeometry y="90" width="196.80769230769238" height="30" as="geometry" />
        </mxCell>
        <mxCell id="8UmoSVPX2Ag410WzAP6h-412" value="FK" style="shape=partialRectangle;connectable=0;fillColor=none;top=0;left=0;bottom=0;right=0;fontStyle=0;overflow=hidden;whiteSpace=wrap;html=1;" parent="8UmoSVPX2Ag410WzAP6h-411" vertex="1">
          <mxGeometry width="30" height="30" as="geometry">
            <mxRectangle width="30" height="30" as="alternateBounds" />
          </mxGeometry>
        </mxCell>
        <mxCell id="8UmoSVPX2Ag410WzAP6h-413" value="id_genero: INT, NOT NULL" style="shape=partialRectangle;connectable=0;fillColor=none;top=0;left=0;bottom=0;right=0;align=left;spacingLeft=6;fontStyle=0;overflow=hidden;whiteSpace=wrap;html=1;" parent="8UmoSVPX2Ag410WzAP6h-411" vertex="1">
          <mxGeometry x="30" width="166.80769230769238" height="30" as="geometry">
            <mxRectangle width="166.80769230769238" height="30" as="alternateBounds" />
          </mxGeometry>
        </mxCell>
        <mxCell id="8UmoSVPX2Ag410WzAP6h-414" value="" style="edgeStyle=entityRelationEdgeStyle;fontSize=12;html=1;endArrow=ERone;endFill=0;rounded=0;startArrow=ERoneToMany;startFill=0;" parent="1" source="8UmoSVPX2Ag410WzAP6h-411" target="8UmoSVPX2Ag410WzAP6h-192" edge="1">
          <mxGeometry width="100" height="100" relative="1" as="geometry">
            <mxPoint x="3690" y="505" as="sourcePoint" />
            <mxPoint x="3794" y="412" as="targetPoint" />
          </mxGeometry>
        </mxCell>
        <mxCell id="8UmoSVPX2Ag410WzAP6h-416" value="tbl_filme_distribuidora" style="shape=table;startSize=30;container=1;collapsible=1;childLayout=tableLayout;fixedRows=1;rowLines=0;fontStyle=1;align=center;resizeLast=1;html=1;" parent="1" vertex="1">
          <mxGeometry x="3438" y="676" width="215.57692307692287" height="120" as="geometry" />
        </mxCell>
        <mxCell id="8UmoSVPX2Ag410WzAP6h-417" value="" style="shape=tableRow;horizontal=0;startSize=0;swimlaneHead=0;swimlaneBody=0;fillColor=none;collapsible=0;dropTarget=0;points=[[0,0.5],[1,0.5]];portConstraint=eastwest;top=0;left=0;right=0;bottom=1;" parent="8UmoSVPX2Ag410WzAP6h-416" vertex="1">
          <mxGeometry y="30" width="215.57692307692287" height="30" as="geometry" />
        </mxCell>
        <mxCell id="8UmoSVPX2Ag410WzAP6h-418" value="PK" style="shape=partialRectangle;connectable=0;fillColor=none;top=0;left=0;bottom=0;right=0;fontStyle=1;overflow=hidden;whiteSpace=wrap;html=1;" parent="8UmoSVPX2Ag410WzAP6h-417" vertex="1">
          <mxGeometry width="30" height="30" as="geometry">
            <mxRectangle width="30" height="30" as="alternateBounds" />
          </mxGeometry>
        </mxCell>
        <mxCell id="8UmoSVPX2Ag410WzAP6h-419" value="id: INT" style="shape=partialRectangle;connectable=0;fillColor=none;top=0;left=0;bottom=0;right=0;align=left;spacingLeft=6;fontStyle=5;overflow=hidden;whiteSpace=wrap;html=1;" parent="8UmoSVPX2Ag410WzAP6h-417" vertex="1">
          <mxGeometry x="30" width="185.57692307692287" height="30" as="geometry">
            <mxRectangle width="185.57692307692287" height="30" as="alternateBounds" />
          </mxGeometry>
        </mxCell>
        <mxCell id="8UmoSVPX2Ag410WzAP6h-420" value="" style="shape=tableRow;horizontal=0;startSize=0;swimlaneHead=0;swimlaneBody=0;fillColor=none;collapsible=0;dropTarget=0;points=[[0,0.5],[1,0.5]];portConstraint=eastwest;top=0;left=0;right=0;bottom=0;" parent="8UmoSVPX2Ag410WzAP6h-416" vertex="1">
          <mxGeometry y="60" width="215.57692307692287" height="30" as="geometry" />
        </mxCell>
        <mxCell id="8UmoSVPX2Ag410WzAP6h-421" value="FK" style="shape=partialRectangle;connectable=0;fillColor=none;top=0;left=0;bottom=0;right=0;fontStyle=0;overflow=hidden;whiteSpace=wrap;html=1;" parent="8UmoSVPX2Ag410WzAP6h-420" vertex="1">
          <mxGeometry width="30" height="30" as="geometry">
            <mxRectangle width="30" height="30" as="alternateBounds" />
          </mxGeometry>
        </mxCell>
        <mxCell id="8UmoSVPX2Ag410WzAP6h-422" value="id_filme: INT, NOT NULL" style="shape=partialRectangle;connectable=0;fillColor=none;top=0;left=0;bottom=0;right=0;align=left;spacingLeft=6;fontStyle=0;overflow=hidden;whiteSpace=wrap;html=1;" parent="8UmoSVPX2Ag410WzAP6h-420" vertex="1">
          <mxGeometry x="30" width="185.57692307692287" height="30" as="geometry">
            <mxRectangle width="185.57692307692287" height="30" as="alternateBounds" />
          </mxGeometry>
        </mxCell>
        <mxCell id="8UmoSVPX2Ag410WzAP6h-423" value="" style="shape=tableRow;horizontal=0;startSize=0;swimlaneHead=0;swimlaneBody=0;fillColor=none;collapsible=0;dropTarget=0;points=[[0,0.5],[1,0.5]];portConstraint=eastwest;top=0;left=0;right=0;bottom=0;" parent="8UmoSVPX2Ag410WzAP6h-416" vertex="1">
          <mxGeometry y="90" width="215.57692307692287" height="30" as="geometry" />
        </mxCell>
        <mxCell id="8UmoSVPX2Ag410WzAP6h-424" value="FK" style="shape=partialRectangle;connectable=0;fillColor=none;top=0;left=0;bottom=0;right=0;fontStyle=0;overflow=hidden;whiteSpace=wrap;html=1;" parent="8UmoSVPX2Ag410WzAP6h-423" vertex="1">
          <mxGeometry width="30" height="30" as="geometry">
            <mxRectangle width="30" height="30" as="alternateBounds" />
          </mxGeometry>
        </mxCell>
        <mxCell id="8UmoSVPX2Ag410WzAP6h-425" value="id_distribuidora: INT, NOT NULL" style="shape=partialRectangle;connectable=0;fillColor=none;top=0;left=0;bottom=0;right=0;align=left;spacingLeft=6;fontStyle=0;overflow=hidden;whiteSpace=wrap;html=1;" parent="8UmoSVPX2Ag410WzAP6h-423" vertex="1">
          <mxGeometry x="30" width="185.57692307692287" height="30" as="geometry">
            <mxRectangle width="185.57692307692287" height="30" as="alternateBounds" />
          </mxGeometry>
        </mxCell>
        <mxCell id="8UmoSVPX2Ag410WzAP6h-429" value="" style="edgeStyle=entityRelationEdgeStyle;fontSize=12;html=1;endArrow=ERoneToMany;endFill=0;rounded=0;startArrow=ERone;startFill=0;exitX=1.004;exitY=0.219;exitDx=0;exitDy=0;exitPerimeter=0;" parent="1" source="8UmoSVPX2Ag410WzAP6h-92" target="8UmoSVPX2Ag410WzAP6h-408" edge="1">
          <mxGeometry width="100" height="100" relative="1" as="geometry">
            <mxPoint x="3362" y="474" as="sourcePoint" />
            <mxPoint x="3532" y="483" as="targetPoint" />
          </mxGeometry>
        </mxCell>
        <mxCell id="8UmoSVPX2Ag410WzAP6h-430" value="" style="edgeStyle=entityRelationEdgeStyle;fontSize=12;html=1;endArrow=ERoneToMany;endFill=0;rounded=0;startArrow=ERone;startFill=0;exitX=1.004;exitY=0.848;exitDx=0;exitDy=0;exitPerimeter=0;" parent="1" source="8UmoSVPX2Ag410WzAP6h-92" target="8UmoSVPX2Ag410WzAP6h-420" edge="1">
          <mxGeometry width="100" height="100" relative="1" as="geometry">
            <mxPoint x="3385" y="653" as="sourcePoint" />
            <mxPoint x="3504" y="760" as="targetPoint" />
          </mxGeometry>
        </mxCell>
        <mxCell id="8UmoSVPX2Ag410WzAP6h-431" value="" style="edgeStyle=entityRelationEdgeStyle;fontSize=12;html=1;endArrow=ERone;endFill=0;rounded=0;startArrow=ERoneToMany;startFill=0;" parent="1" source="8UmoSVPX2Ag410WzAP6h-423" target="8UmoSVPX2Ag410WzAP6h-219" edge="1">
          <mxGeometry width="100" height="100" relative="1" as="geometry">
            <mxPoint x="3642" y="906" as="sourcePoint" />
            <mxPoint x="3784" y="835" as="targetPoint" />
          </mxGeometry>
        </mxCell>
        <mxCell id="8UmoSVPX2Ag410WzAP6h-432" value="tbl_streaming_distribuidora" style="shape=table;startSize=30;container=1;collapsible=1;childLayout=tableLayout;fixedRows=1;rowLines=0;fontStyle=1;align=center;resizeLast=1;html=1;" parent="1" vertex="1">
          <mxGeometry x="3745" y="881" width="224.19230769230762" height="120" as="geometry" />
        </mxCell>
        <mxCell id="8UmoSVPX2Ag410WzAP6h-433" value="" style="shape=tableRow;horizontal=0;startSize=0;swimlaneHead=0;swimlaneBody=0;fillColor=none;collapsible=0;dropTarget=0;points=[[0,0.5],[1,0.5]];portConstraint=eastwest;top=0;left=0;right=0;bottom=1;" parent="8UmoSVPX2Ag410WzAP6h-432" vertex="1">
          <mxGeometry y="30" width="224.19230769230762" height="30" as="geometry" />
        </mxCell>
        <mxCell id="8UmoSVPX2Ag410WzAP6h-434" value="PK" style="shape=partialRectangle;connectable=0;fillColor=none;top=0;left=0;bottom=0;right=0;fontStyle=1;overflow=hidden;whiteSpace=wrap;html=1;" parent="8UmoSVPX2Ag410WzAP6h-433" vertex="1">
          <mxGeometry width="30" height="30" as="geometry">
            <mxRectangle width="30" height="30" as="alternateBounds" />
          </mxGeometry>
        </mxCell>
        <mxCell id="8UmoSVPX2Ag410WzAP6h-435" value="id: INT" style="shape=partialRectangle;connectable=0;fillColor=none;top=0;left=0;bottom=0;right=0;align=left;spacingLeft=6;fontStyle=5;overflow=hidden;whiteSpace=wrap;html=1;" parent="8UmoSVPX2Ag410WzAP6h-433" vertex="1">
          <mxGeometry x="30" width="194.19230769230762" height="30" as="geometry">
            <mxRectangle width="194.19230769230762" height="30" as="alternateBounds" />
          </mxGeometry>
        </mxCell>
        <mxCell id="8UmoSVPX2Ag410WzAP6h-436" value="" style="shape=tableRow;horizontal=0;startSize=0;swimlaneHead=0;swimlaneBody=0;fillColor=none;collapsible=0;dropTarget=0;points=[[0,0.5],[1,0.5]];portConstraint=eastwest;top=0;left=0;right=0;bottom=0;" parent="8UmoSVPX2Ag410WzAP6h-432" vertex="1">
          <mxGeometry y="60" width="224.19230769230762" height="30" as="geometry" />
        </mxCell>
        <mxCell id="8UmoSVPX2Ag410WzAP6h-437" value="FK" style="shape=partialRectangle;connectable=0;fillColor=none;top=0;left=0;bottom=0;right=0;fontStyle=0;overflow=hidden;whiteSpace=wrap;html=1;" parent="8UmoSVPX2Ag410WzAP6h-436" vertex="1">
          <mxGeometry width="30" height="30" as="geometry">
            <mxRectangle width="30" height="30" as="alternateBounds" />
          </mxGeometry>
        </mxCell>
        <mxCell id="8UmoSVPX2Ag410WzAP6h-438" value="id_distribuidora: INT, NOT NULL" style="shape=partialRectangle;connectable=0;fillColor=none;top=0;left=0;bottom=0;right=0;align=left;spacingLeft=6;fontStyle=0;overflow=hidden;whiteSpace=wrap;html=1;" parent="8UmoSVPX2Ag410WzAP6h-436" vertex="1">
          <mxGeometry x="30" width="194.19230769230762" height="30" as="geometry">
            <mxRectangle width="194.19230769230762" height="30" as="alternateBounds" />
          </mxGeometry>
        </mxCell>
        <mxCell id="8UmoSVPX2Ag410WzAP6h-439" value="" style="shape=tableRow;horizontal=0;startSize=0;swimlaneHead=0;swimlaneBody=0;fillColor=none;collapsible=0;dropTarget=0;points=[[0,0.5],[1,0.5]];portConstraint=eastwest;top=0;left=0;right=0;bottom=0;" parent="8UmoSVPX2Ag410WzAP6h-432" vertex="1">
          <mxGeometry y="90" width="224.19230769230762" height="30" as="geometry" />
        </mxCell>
        <mxCell id="8UmoSVPX2Ag410WzAP6h-440" value="FK" style="shape=partialRectangle;connectable=0;fillColor=none;top=0;left=0;bottom=0;right=0;fontStyle=0;overflow=hidden;whiteSpace=wrap;html=1;" parent="8UmoSVPX2Ag410WzAP6h-439" vertex="1">
          <mxGeometry width="30" height="30" as="geometry">
            <mxRectangle width="30" height="30" as="alternateBounds" />
          </mxGeometry>
        </mxCell>
        <mxCell id="8UmoSVPX2Ag410WzAP6h-441" value="id_streaming: INT, NOT NULL" style="shape=partialRectangle;connectable=0;fillColor=none;top=0;left=0;bottom=0;right=0;align=left;spacingLeft=6;fontStyle=0;overflow=hidden;whiteSpace=wrap;html=1;" parent="8UmoSVPX2Ag410WzAP6h-439" vertex="1">
          <mxGeometry x="30" width="194.19230769230762" height="30" as="geometry">
            <mxRectangle width="194.19230769230762" height="30" as="alternateBounds" />
          </mxGeometry>
        </mxCell>
        <mxCell id="8UmoSVPX2Ag410WzAP6h-442" value="" style="edgeStyle=entityRelationEdgeStyle;fontSize=12;html=1;endArrow=ERone;endFill=0;rounded=0;startArrow=ERzeroToMany;startFill=0;" parent="1" source="8UmoSVPX2Ag410WzAP6h-439" target="8UmoSVPX2Ag410WzAP6h-245" edge="1">
          <mxGeometry width="100" height="100" relative="1" as="geometry">
            <mxPoint x="3741" y="1088" as="sourcePoint" />
            <mxPoint x="4228" y="765" as="targetPoint" />
          </mxGeometry>
        </mxCell>
        <mxCell id="8UmoSVPX2Ag410WzAP6h-443" value="" style="edgeStyle=entityRelationEdgeStyle;fontSize=12;html=1;endArrow=ERzeroToMany;endFill=0;rounded=0;startArrow=ERone;startFill=0;" parent="1" target="8UmoSVPX2Ag410WzAP6h-436" edge="1">
          <mxGeometry width="100" height="100" relative="1" as="geometry">
            <mxPoint x="3664.5073684210524" y="879" as="sourcePoint" />
            <mxPoint x="3745" y="994" as="targetPoint" />
          </mxGeometry>
        </mxCell>
        <mxCell id="QKPFVHAe18mmnaoQ-rNV-1" value="tbl_ator" style="shape=table;startSize=30;container=1;collapsible=1;childLayout=tableLayout;fixedRows=1;rowLines=0;fontStyle=1;align=center;resizeLast=1;html=1;" vertex="1" parent="1">
          <mxGeometry x="2231" y="563" width="225.03019945549295" height="120" as="geometry" />
        </mxCell>
        <mxCell id="QKPFVHAe18mmnaoQ-rNV-2" value="" style="shape=tableRow;horizontal=0;startSize=0;swimlaneHead=0;swimlaneBody=0;fillColor=none;collapsible=0;dropTarget=0;points=[[0,0.5],[1,0.5]];portConstraint=eastwest;top=0;left=0;right=0;bottom=1;" vertex="1" parent="QKPFVHAe18mmnaoQ-rNV-1">
          <mxGeometry y="30" width="225.03019945549295" height="30" as="geometry" />
        </mxCell>
        <mxCell id="QKPFVHAe18mmnaoQ-rNV-3" value="PK" style="shape=partialRectangle;connectable=0;fillColor=none;top=0;left=0;bottom=0;right=0;fontStyle=1;overflow=hidden;whiteSpace=wrap;html=1;" vertex="1" parent="QKPFVHAe18mmnaoQ-rNV-2">
          <mxGeometry width="30" height="30" as="geometry">
            <mxRectangle width="30" height="30" as="alternateBounds" />
          </mxGeometry>
        </mxCell>
        <mxCell id="QKPFVHAe18mmnaoQ-rNV-4" value="id: INT" style="shape=partialRectangle;connectable=0;fillColor=none;top=0;left=0;bottom=0;right=0;align=left;spacingLeft=6;fontStyle=5;overflow=hidden;whiteSpace=wrap;html=1;" vertex="1" parent="QKPFVHAe18mmnaoQ-rNV-2">
          <mxGeometry x="30" width="195.03019945549295" height="30" as="geometry">
            <mxRectangle width="195.03019945549295" height="30" as="alternateBounds" />
          </mxGeometry>
        </mxCell>
        <mxCell id="QKPFVHAe18mmnaoQ-rNV-15" value="" style="shape=tableRow;horizontal=0;startSize=0;swimlaneHead=0;swimlaneBody=0;fillColor=none;collapsible=0;dropTarget=0;points=[[0,0.5],[1,0.5]];portConstraint=eastwest;top=0;left=0;right=0;bottom=0;" vertex="1" parent="QKPFVHAe18mmnaoQ-rNV-1">
          <mxGeometry y="60" width="225.03019945549295" height="30" as="geometry" />
        </mxCell>
        <mxCell id="QKPFVHAe18mmnaoQ-rNV-16" value="FK" style="shape=partialRectangle;connectable=0;fillColor=none;top=0;left=0;bottom=0;right=0;fontStyle=0;overflow=hidden;whiteSpace=wrap;html=1;" vertex="1" parent="QKPFVHAe18mmnaoQ-rNV-15">
          <mxGeometry width="30" height="30" as="geometry">
            <mxRectangle width="30" height="30" as="alternateBounds" />
          </mxGeometry>
        </mxCell>
        <mxCell id="QKPFVHAe18mmnaoQ-rNV-17" value="id_personagem: INT, NOT NULL" style="shape=partialRectangle;connectable=0;fillColor=none;top=0;left=0;bottom=0;right=0;align=left;spacingLeft=6;fontStyle=0;overflow=hidden;whiteSpace=wrap;html=1;" vertex="1" parent="QKPFVHAe18mmnaoQ-rNV-15">
          <mxGeometry x="30" width="195.03019945549295" height="30" as="geometry">
            <mxRectangle width="195.03019945549295" height="30" as="alternateBounds" />
          </mxGeometry>
        </mxCell>
        <mxCell id="QKPFVHAe18mmnaoQ-rNV-18" value="" style="shape=tableRow;horizontal=0;startSize=0;swimlaneHead=0;swimlaneBody=0;fillColor=none;collapsible=0;dropTarget=0;points=[[0,0.5],[1,0.5]];portConstraint=eastwest;top=0;left=0;right=0;bottom=0;" vertex="1" parent="QKPFVHAe18mmnaoQ-rNV-1">
          <mxGeometry y="90" width="225.03019945549295" height="30" as="geometry" />
        </mxCell>
        <mxCell id="QKPFVHAe18mmnaoQ-rNV-19" value="FK" style="shape=partialRectangle;connectable=0;fillColor=none;top=0;left=0;bottom=0;right=0;fontStyle=0;overflow=hidden;whiteSpace=wrap;html=1;" vertex="1" parent="QKPFVHAe18mmnaoQ-rNV-18">
          <mxGeometry width="30" height="30" as="geometry">
            <mxRectangle width="30" height="30" as="alternateBounds" />
          </mxGeometry>
        </mxCell>
        <mxCell id="QKPFVHAe18mmnaoQ-rNV-20" value="id_profissional: INT, NOT NULL" style="shape=partialRectangle;connectable=0;fillColor=none;top=0;left=0;bottom=0;right=0;align=left;spacingLeft=6;fontStyle=0;overflow=hidden;whiteSpace=wrap;html=1;" vertex="1" parent="QKPFVHAe18mmnaoQ-rNV-18">
          <mxGeometry x="30" width="195.03019945549295" height="30" as="geometry">
            <mxRectangle width="195.03019945549295" height="30" as="alternateBounds" />
          </mxGeometry>
        </mxCell>
        <mxCell id="QKPFVHAe18mmnaoQ-rNV-24" value="" style="edgeStyle=entityRelationEdgeStyle;fontSize=12;html=1;endArrow=ERzeroToMany;endFill=0;rounded=0;startArrow=ERone;startFill=0;" edge="1" parent="1" source="8UmoSVPX2Ag410WzAP6h-308" target="QKPFVHAe18mmnaoQ-rNV-18">
          <mxGeometry width="100" height="100" relative="1" as="geometry">
            <mxPoint x="2326" y="768" as="sourcePoint" />
            <mxPoint x="2426" y="668" as="targetPoint" />
          </mxGeometry>
        </mxCell>
        <mxCell id="QKPFVHAe18mmnaoQ-rNV-25" value="" style="edgeStyle=entityRelationEdgeStyle;fontSize=12;html=1;endArrow=ERone;endFill=0;rounded=0;startArrow=ERoneToMany;startFill=0;" edge="1" parent="1" source="QKPFVHAe18mmnaoQ-rNV-15" target="8UmoSVPX2Ag410WzAP6h-151">
          <mxGeometry width="100" height="100" relative="1" as="geometry">
            <mxPoint x="2352" y="588" as="sourcePoint" />
            <mxPoint x="2452" y="488" as="targetPoint" />
          </mxGeometry>
        </mxCell>
        <mxCell id="QKPFVHAe18mmnaoQ-rNV-26" value="midia" style="whiteSpace=wrap;html=1;align=center;" vertex="1" parent="1">
          <mxGeometry x="1094" y="690" width="100" height="40" as="geometry" />
        </mxCell>
        <mxCell id="QKPFVHAe18mmnaoQ-rNV-27" value="é" style="endArrow=ERmandOne;html=1;rounded=0;endFill=0;startArrow=ERzeroToMany;startFill=0;" edge="1" parent="1" source="8UmoSVPX2Ag410WzAP6h-1" target="QKPFVHAe18mmnaoQ-rNV-26">
          <mxGeometry relative="1" as="geometry">
            <mxPoint x="1137" y="800" as="sourcePoint" />
            <mxPoint x="1297" y="800" as="targetPoint" />
          </mxGeometry>
        </mxCell>
        <mxCell id="QKPFVHAe18mmnaoQ-rNV-29" value="id" style="ellipse;whiteSpace=wrap;html=1;align=center;fontStyle=4;" vertex="1" parent="1">
          <mxGeometry x="1084" y="588" width="100" height="40" as="geometry" />
        </mxCell>
        <mxCell id="QKPFVHAe18mmnaoQ-rNV-30" value="" style="endArrow=none;html=1;rounded=0;" edge="1" parent="1" source="QKPFVHAe18mmnaoQ-rNV-29" target="QKPFVHAe18mmnaoQ-rNV-26">
          <mxGeometry relative="1" as="geometry">
            <mxPoint x="1209" y="862" as="sourcePoint" />
            <mxPoint x="1180" y="667" as="targetPoint" />
          </mxGeometry>
        </mxCell>
        <mxCell id="QKPFVHAe18mmnaoQ-rNV-31" value="nome" style="ellipse;whiteSpace=wrap;html=1;align=center;" vertex="1" parent="1">
          <mxGeometry x="1199" y="618" width="100" height="40" as="geometry" />
        </mxCell>
        <mxCell id="QKPFVHAe18mmnaoQ-rNV-32" value="" style="endArrow=none;html=1;rounded=0;" edge="1" parent="1" source="QKPFVHAe18mmnaoQ-rNV-26" target="QKPFVHAe18mmnaoQ-rNV-31">
          <mxGeometry relative="1" as="geometry">
            <mxPoint x="1016" y="794" as="sourcePoint" />
            <mxPoint x="1176" y="794" as="targetPoint" />
          </mxGeometry>
        </mxCell>
        <mxCell id="QKPFVHAe18mmnaoQ-rNV-33" value="contem" style="endArrow=ERzeroToMany;html=1;rounded=0;startArrow=ERoneToMany;startFill=0;endFill=0;" edge="1" parent="1" source="QKPFVHAe18mmnaoQ-rNV-26" target="8UmoSVPX2Ag410WzAP6h-23">
          <mxGeometry relative="1" as="geometry">
            <mxPoint x="1178" y="799" as="sourcePoint" />
            <mxPoint x="1338" y="799" as="targetPoint" />
          </mxGeometry>
        </mxCell>
        <mxCell id="QKPFVHAe18mmnaoQ-rNV-34" value="tbl_midia" style="shape=table;startSize=30;container=1;collapsible=1;childLayout=tableLayout;fixedRows=1;rowLines=0;fontStyle=1;align=center;resizeLast=1;html=1;" vertex="1" parent="1">
          <mxGeometry x="3186" y="842" width="180" height="90" as="geometry" />
        </mxCell>
        <mxCell id="QKPFVHAe18mmnaoQ-rNV-35" value="" style="shape=tableRow;horizontal=0;startSize=0;swimlaneHead=0;swimlaneBody=0;fillColor=none;collapsible=0;dropTarget=0;points=[[0,0.5],[1,0.5]];portConstraint=eastwest;top=0;left=0;right=0;bottom=1;" vertex="1" parent="QKPFVHAe18mmnaoQ-rNV-34">
          <mxGeometry y="30" width="180" height="30" as="geometry" />
        </mxCell>
        <mxCell id="QKPFVHAe18mmnaoQ-rNV-36" value="PK" style="shape=partialRectangle;connectable=0;fillColor=none;top=0;left=0;bottom=0;right=0;fontStyle=1;overflow=hidden;whiteSpace=wrap;html=1;" vertex="1" parent="QKPFVHAe18mmnaoQ-rNV-35">
          <mxGeometry width="30" height="30" as="geometry">
            <mxRectangle width="30" height="30" as="alternateBounds" />
          </mxGeometry>
        </mxCell>
        <mxCell id="QKPFVHAe18mmnaoQ-rNV-37" value="id: INT" style="shape=partialRectangle;connectable=0;fillColor=none;top=0;left=0;bottom=0;right=0;align=left;spacingLeft=6;fontStyle=5;overflow=hidden;whiteSpace=wrap;html=1;" vertex="1" parent="QKPFVHAe18mmnaoQ-rNV-35">
          <mxGeometry x="30" width="150" height="30" as="geometry">
            <mxRectangle width="150" height="30" as="alternateBounds" />
          </mxGeometry>
        </mxCell>
        <mxCell id="QKPFVHAe18mmnaoQ-rNV-38" value="" style="shape=tableRow;horizontal=0;startSize=0;swimlaneHead=0;swimlaneBody=0;fillColor=none;collapsible=0;dropTarget=0;points=[[0,0.5],[1,0.5]];portConstraint=eastwest;top=0;left=0;right=0;bottom=0;" vertex="1" parent="QKPFVHAe18mmnaoQ-rNV-34">
          <mxGeometry y="60" width="180" height="30" as="geometry" />
        </mxCell>
        <mxCell id="QKPFVHAe18mmnaoQ-rNV-39" value="" style="shape=partialRectangle;connectable=0;fillColor=none;top=0;left=0;bottom=0;right=0;editable=1;overflow=hidden;whiteSpace=wrap;html=1;" vertex="1" parent="QKPFVHAe18mmnaoQ-rNV-38">
          <mxGeometry width="30" height="30" as="geometry">
            <mxRectangle width="30" height="30" as="alternateBounds" />
          </mxGeometry>
        </mxCell>
        <mxCell id="QKPFVHAe18mmnaoQ-rNV-40" value="nome: VARCHAR(20)" style="shape=partialRectangle;connectable=0;fillColor=none;top=0;left=0;bottom=0;right=0;align=left;spacingLeft=6;overflow=hidden;whiteSpace=wrap;html=1;" vertex="1" parent="QKPFVHAe18mmnaoQ-rNV-38">
          <mxGeometry x="30" width="150" height="30" as="geometry">
            <mxRectangle width="150" height="30" as="alternateBounds" />
          </mxGeometry>
        </mxCell>
        <mxCell id="QKPFVHAe18mmnaoQ-rNV-47" value="" style="edgeStyle=entityRelationEdgeStyle;fontSize=12;html=1;endArrow=ERzeroToMany;endFill=0;rounded=0;startArrow=ERmandOne;startFill=0;" edge="1" parent="1" source="QKPFVHAe18mmnaoQ-rNV-35" target="QKPFVHAe18mmnaoQ-rNV-48">
          <mxGeometry width="100" height="100" relative="1" as="geometry">
            <mxPoint x="3365" y="989" as="sourcePoint" />
            <mxPoint x="3465" y="889" as="targetPoint" />
          </mxGeometry>
        </mxCell>
        <mxCell id="QKPFVHAe18mmnaoQ-rNV-57" value="tbl_streaming_midia" style="shape=table;startSize=30;container=1;collapsible=1;childLayout=tableLayout;fixedRows=1;rowLines=0;fontStyle=1;align=center;resizeLast=1;html=1;" vertex="1" parent="1">
          <mxGeometry x="3146.54" y="994" width="219.45817057291652" height="120" as="geometry" />
        </mxCell>
        <mxCell id="QKPFVHAe18mmnaoQ-rNV-58" value="" style="shape=tableRow;horizontal=0;startSize=0;swimlaneHead=0;swimlaneBody=0;fillColor=none;collapsible=0;dropTarget=0;points=[[0,0.5],[1,0.5]];portConstraint=eastwest;top=0;left=0;right=0;bottom=1;" vertex="1" parent="QKPFVHAe18mmnaoQ-rNV-57">
          <mxGeometry y="30" width="219.45817057291652" height="30" as="geometry" />
        </mxCell>
        <mxCell id="QKPFVHAe18mmnaoQ-rNV-59" value="PK" style="shape=partialRectangle;connectable=0;fillColor=none;top=0;left=0;bottom=0;right=0;fontStyle=1;overflow=hidden;whiteSpace=wrap;html=1;" vertex="1" parent="QKPFVHAe18mmnaoQ-rNV-58">
          <mxGeometry width="30" height="30" as="geometry">
            <mxRectangle width="30" height="30" as="alternateBounds" />
          </mxGeometry>
        </mxCell>
        <mxCell id="QKPFVHAe18mmnaoQ-rNV-60" value="id: INT" style="shape=partialRectangle;connectable=0;fillColor=none;top=0;left=0;bottom=0;right=0;align=left;spacingLeft=6;fontStyle=5;overflow=hidden;whiteSpace=wrap;html=1;" vertex="1" parent="QKPFVHAe18mmnaoQ-rNV-58">
          <mxGeometry x="30" width="189.45817057291652" height="30" as="geometry">
            <mxRectangle width="189.45817057291652" height="30" as="alternateBounds" />
          </mxGeometry>
        </mxCell>
        <mxCell id="QKPFVHAe18mmnaoQ-rNV-73" value="" style="shape=tableRow;horizontal=0;startSize=0;swimlaneHead=0;swimlaneBody=0;fillColor=none;collapsible=0;dropTarget=0;points=[[0,0.5],[1,0.5]];portConstraint=eastwest;top=0;left=0;right=0;bottom=0;" vertex="1" parent="QKPFVHAe18mmnaoQ-rNV-57">
          <mxGeometry y="60" width="219.45817057291652" height="30" as="geometry" />
        </mxCell>
        <mxCell id="QKPFVHAe18mmnaoQ-rNV-74" value="FK" style="shape=partialRectangle;connectable=0;fillColor=none;top=0;left=0;bottom=0;right=0;fontStyle=0;overflow=hidden;whiteSpace=wrap;html=1;" vertex="1" parent="QKPFVHAe18mmnaoQ-rNV-73">
          <mxGeometry width="30" height="30" as="geometry">
            <mxRectangle width="30" height="30" as="alternateBounds" />
          </mxGeometry>
        </mxCell>
        <mxCell id="QKPFVHAe18mmnaoQ-rNV-75" value="id_midia: INT, NOT NULL" style="shape=partialRectangle;connectable=0;fillColor=none;top=0;left=0;bottom=0;right=0;align=left;spacingLeft=6;fontStyle=0;overflow=hidden;whiteSpace=wrap;html=1;" vertex="1" parent="QKPFVHAe18mmnaoQ-rNV-73">
          <mxGeometry x="30" width="189.45817057291652" height="30" as="geometry">
            <mxRectangle width="189.45817057291652" height="30" as="alternateBounds" />
          </mxGeometry>
        </mxCell>
        <mxCell id="QKPFVHAe18mmnaoQ-rNV-70" value="" style="shape=tableRow;horizontal=0;startSize=0;swimlaneHead=0;swimlaneBody=0;fillColor=none;collapsible=0;dropTarget=0;points=[[0,0.5],[1,0.5]];portConstraint=eastwest;top=0;left=0;right=0;bottom=0;" vertex="1" parent="QKPFVHAe18mmnaoQ-rNV-57">
          <mxGeometry y="90" width="219.45817057291652" height="30" as="geometry" />
        </mxCell>
        <mxCell id="QKPFVHAe18mmnaoQ-rNV-71" value="FK" style="shape=partialRectangle;connectable=0;fillColor=none;top=0;left=0;bottom=0;right=0;fontStyle=0;overflow=hidden;whiteSpace=wrap;html=1;" vertex="1" parent="QKPFVHAe18mmnaoQ-rNV-70">
          <mxGeometry width="30" height="30" as="geometry">
            <mxRectangle width="30" height="30" as="alternateBounds" />
          </mxGeometry>
        </mxCell>
        <mxCell id="QKPFVHAe18mmnaoQ-rNV-72" value="id_streaming: INT, NOT NULL" style="shape=partialRectangle;connectable=0;fillColor=none;top=0;left=0;bottom=0;right=0;align=left;spacingLeft=6;fontStyle=0;overflow=hidden;whiteSpace=wrap;html=1;" vertex="1" parent="QKPFVHAe18mmnaoQ-rNV-70">
          <mxGeometry x="30" width="189.45817057291652" height="30" as="geometry">
            <mxRectangle width="189.45817057291652" height="30" as="alternateBounds" />
          </mxGeometry>
        </mxCell>
        <mxCell id="QKPFVHAe18mmnaoQ-rNV-76" value="" style="edgeStyle=entityRelationEdgeStyle;fontSize=12;html=1;endArrow=ERone;endFill=0;rounded=0;startArrow=ERoneToMany;startFill=0;" edge="1" parent="1" source="QKPFVHAe18mmnaoQ-rNV-70" target="8UmoSVPX2Ag410WzAP6h-245">
          <mxGeometry width="100" height="100" relative="1" as="geometry">
            <mxPoint x="3214" y="1275" as="sourcePoint" />
            <mxPoint x="3314" y="1175" as="targetPoint" />
          </mxGeometry>
        </mxCell>
        <mxCell id="QKPFVHAe18mmnaoQ-rNV-78" value="" style="edgeStyle=orthogonalEdgeStyle;fontSize=12;html=1;endArrow=ERone;endFill=0;rounded=0;startArrow=ERoneToMany;startFill=0;" edge="1" parent="1" source="QKPFVHAe18mmnaoQ-rNV-58" target="QKPFVHAe18mmnaoQ-rNV-35">
          <mxGeometry width="100" height="100" relative="1" as="geometry">
            <mxPoint x="3375.9981705729165" y="1047.0000000000002" as="sourcePoint" />
            <mxPoint x="3379.54" y="894" as="targetPoint" />
          </mxGeometry>
        </mxCell>
      </root>
    </mxGraphModel>
  </diagram>
</mxfile>
